<svg width="131" height="100" viewBox="0 0 131 100" fill="none" xmlns="http://www.w3.org/2000/svg">
<path fill-rule="evenodd" clip-rule="evenodd" d="M129.144 76.5362C126.599 79.7292 120.363 82.0071 120.363 82.0071L73.973 98.5756V86.3567L108.113 74.2613C111.987 72.8811 112.582 70.93 109.433 69.9058C106.29 68.8787 100.598 69.173 96.721 70.5592L73.973 78.5256V65.8446L75.2841 65.4032C75.2841 65.4032 81.8575 63.09 91.1006 62.0718C100.344 61.0594 111.661 62.2101 120.546 65.5592C130.559 68.7051 131.687 73.3431 129.144 76.5362ZM78.3888 55.7298V24.482C78.3888 20.8122 77.7081 17.4338 74.2452 16.4773C71.5934 15.6327 69.9478 18.0812 69.9478 21.7481V100L48.724 93.3019V0C57.748 1.66569 70.8949 5.6033 77.9626 7.97234C95.9367 14.1083 102.031 21.7451 102.031 38.9523C102.031 55.724 91.6185 62.0806 78.3888 55.7298ZM9.78063 85.0795C-0.498315 82.2013 -2.20901 76.2036 2.47616 72.7487C6.80616 69.5586 14.1698 67.1572 14.1698 67.1572L44.6012 56.3979V68.6639L22.7026 76.4567C18.8343 77.837 18.2394 79.7911 21.3825 80.8152C24.5287 81.8393 30.2231 81.548 34.0973 80.1648L44.6012 76.3743V87.3484C43.9352 87.4662 43.1924 87.5839 42.5057 87.6986C31.9989 89.4055 20.8084 88.6934 9.78063 85.0795ZM122.384 89.9382C123.713 89.9382 124.959 90.4503 125.897 91.3949C126.836 92.3249 127.354 93.5668 127.354 94.8852C127.354 96.2095 126.836 97.4455 125.897 98.3755C124.959 99.3143 123.713 99.8264 122.384 99.8264C121.055 99.8264 119.812 99.3143 118.871 98.3755C117.933 97.4455 117.418 96.2095 117.418 94.8852C117.418 92.1601 119.644 89.9382 122.384 89.9382ZM118.253 94.8852C118.253 95.9829 118.682 97.0159 119.463 97.7869C120.242 98.5697 121.283 98.9935 122.384 98.9935C124.666 98.9935 126.516 97.1513 126.516 94.8852C126.516 93.7846 126.09 92.7516 125.306 91.9776C124.527 91.1948 123.485 90.774 122.384 90.774C121.283 90.774 120.242 91.1948 119.463 91.9776C118.682 92.7516 118.253 93.7846 118.253 94.8852ZM123.885 92.2219C124.429 92.4603 124.705 92.9194 124.705 93.5727C124.705 93.9082 124.634 94.1907 124.489 94.4114C124.385 94.5703 124.237 94.6998 124.071 94.8116C124.202 94.8882 124.317 94.9794 124.403 95.0853C124.521 95.2384 124.589 95.4826 124.598 95.8152L124.625 96.5185C124.634 96.7069 124.646 96.8511 124.675 96.9394C124.705 97.0689 124.761 97.1513 124.832 97.1777L124.906 97.2131V97.2925V97.4132V97.5339H124.785H123.906H123.835L123.799 97.4721C123.769 97.4133 123.749 97.3456 123.728 97.2573C123.713 97.1778 123.698 97.0395 123.69 96.8276L123.645 95.9535C123.633 95.6504 123.53 95.4621 123.334 95.362C123.213 95.3061 123.012 95.2796 122.739 95.2796H121.233V97.4132V97.5339H121.109H120.392H120.271V97.4132V92.1543V92.0336H120.392H122.84C123.26 92.0336 123.613 92.0953 123.885 92.2219ZM121.233 94.4379H122.766C123.074 94.4379 123.32 94.382 123.494 94.2672C123.654 94.1524 123.731 93.9435 123.731 93.6404C123.731 93.3108 123.621 93.0959 123.391 92.9812C123.263 92.9194 123.086 92.884 122.861 92.884H121.233V94.4379Z" fill="white"/>
</svg>
