<svg width="87" height="100" viewBox="0 0 87 100" fill="none" xmlns="http://www.w3.org/2000/svg">
<path fill-rule="evenodd" clip-rule="evenodd" d="M78.6537 0H8.12893C2.41265 0 0.30304 2.10961 0.30304 7.82856V76.8366C0.30304 77.4837 0.329138 78.0849 0.386308 78.6419C0.397156 78.7459 0.407271 78.8497 0.417371 78.9534C0.528432 80.093 0.637731 81.2146 1.70193 82.477C1.81538 82.612 3.00068 83.494 3.00068 83.494C3.11272 83.549 3.21851 83.6014 3.3207 83.652L3.32548 83.6544L3.32726 83.6552C3.80367 83.8913 4.20266 84.0889 4.79265 84.3264L39.52 98.8759C41.3228 99.7024 42.0767 100.024 43.3861 99.9986V99.9987H43.3912H43.3964V99.9986C44.7058 100.024 45.4597 99.7024 47.2626 98.8759L81.9898 84.3264C82.5792 84.0892 82.9778 83.8918 83.4535 83.6562C83.5583 83.6042 83.6668 83.5505 83.782 83.494C83.782 83.494 84.9673 82.612 85.0805 82.477C86.1447 81.2146 86.254 80.093 86.3651 78.9533L86.3804 78.7975C86.3855 78.7457 86.3907 78.6938 86.3962 78.6419C86.4533 78.0849 86.4796 77.4837 86.4796 76.8366V7.82856C86.4796 2.10961 84.3698 0 78.6537 0ZM73.9297 69.3782L73.9137 69.5375L73.8979 69.7124L73.866 69.8716L73.8184 70.0307L73.7875 70.174L73.7396 70.3333L73.676 70.4765L73.6123 70.604L73.5496 70.7471L73.47 70.8744L73.3905 71.0019L73.2959 71.1292L73.2161 71.2565L73.1217 71.3678L73.0102 71.4793L72.9156 71.5748L72.7884 71.6863L72.6778 71.7819L72.5505 71.8774L72.4241 71.9559L72.2977 72.0514L72.1544 72.1309L72.012 72.1947L71.8698 72.2742L71.7106 72.3379L71.5524 72.4017L71.3942 72.4493L71.236 72.4972L71.0927 72.5448L70.9345 72.5767L70.7921 72.6085L70.6499 72.6403L70.4906 72.6723L70.3323 72.6881L70.19 72.704L70.0308 72.72L69.8568 72.736L69.6984 72.7518H69.5402H69.3661H69.191H69.0328L68.8744 72.736H68.7004L68.5421 72.72L68.383 72.704L68.2088 72.6881L68.0506 72.6563L67.8924 72.6403L67.7332 72.6085L67.5748 72.5767L67.4166 72.5448L67.2584 72.513L67.0993 72.4654L66.9569 72.4335L66.7987 72.3857L66.6404 72.3379L66.4973 72.2742L66.3391 72.2264L66.1967 72.1789L66.0383 72.1151L65.8952 72.0514L65.7528 71.9876L65.6104 71.9092L65.4673 71.8454L65.3249 71.7657L65.1985 71.6863L65.0552 71.6066L64.9288 71.5271L64.8015 71.4475L64.6751 71.352L64.5487 71.2565L64.4214 71.161L64.2948 71.0655L64.1835 70.9699L64.0571 70.8586L64.1526 70.7313L64.263 70.6198L64.3585 70.4923L64.4691 70.365L64.5647 70.2537L64.6591 70.1264L64.7706 69.9989L64.8651 69.8876L64.9766 69.7603L65.0712 69.6488L65.1825 69.5215L65.2772 69.394L65.3727 69.2827L65.4831 69.1554L65.5786 69.0279L65.6891 68.9166L65.7846 68.7893L65.911 68.8848L66.0534 68.9804L66.1807 69.0759L66.3231 69.1714L66.4504 69.2509L66.5928 69.3463L66.719 69.426L66.8625 69.4896L66.9887 69.5693L67.1311 69.633L67.2744 69.6966L67.4166 69.7603L67.5592 69.8081L67.7023 69.8716L67.8605 69.9194L68.0188 69.9672L68.161 70.0149L68.3203 70.0469L68.4785 70.0787L68.6367 70.1104L68.8109 70.1264L68.9699 70.1582H69.1283L69.3023 70.174H69.4607H69.6507L69.8248 70.1582L69.9841 70.1264L70.1263 70.0945L70.2687 70.0627L70.396 70.0149L70.5066 69.9514L70.6339 69.8558L70.7284 69.7443L70.7921 69.6169L70.84 69.4738L70.8557 69.3145V69.2827L70.84 69.0917L70.7763 68.9324L70.6966 68.8211L70.5862 68.7256L70.4587 68.6301L70.3323 68.5665L70.19 68.5028L70.0308 68.439L69.8408 68.3597L69.7302 68.3277L69.604 68.2959L69.4607 68.248L69.3183 68.2162L69.1601 68.1684L69.0008 68.1367L68.8269 68.0889L68.6685 68.0571L68.4943 68.0094L68.3361 67.9776L68.1768 67.9298L68.0188 67.8979L67.8605 67.8501L67.7172 67.8025L67.5592 67.7706L67.4166 67.7228L67.2744 67.675L67.1311 67.6273L66.9569 67.5635L66.7987 67.4998L66.6404 67.4362L66.4813 67.3725L66.3391 67.293L66.1807 67.2134L66.0534 67.1339L65.911 67.0543L65.7846 66.9588L65.6573 66.8793L65.5469 66.7836L65.4355 66.6723L65.3249 66.5608L65.2294 66.4493L65.1349 66.3379L65.0552 66.2266L64.9766 66.0991L64.897 65.956L64.8333 65.8456L64.7855 65.7181L64.7388 65.5748L64.6911 65.4475L64.6591 65.2883L64.6273 65.145L64.6114 64.9859L64.5956 64.8267L64.5796 64.6518V64.4765V64.4448V64.2855L64.5956 64.1264L64.6114 63.9831L64.6273 63.8239L64.6591 63.6808L64.6911 63.5375L64.7388 63.394L64.7706 63.2509L64.8333 63.1077L64.897 62.9644L64.9606 62.8213L65.0394 62.6778L65.1188 62.5347L65.2134 62.4072L65.3091 62.2799L65.4196 62.1526L65.5309 62.0413L65.6415 61.9138L65.7688 61.8023L65.8792 61.7228L66.0065 61.6273L66.1331 61.5317L66.2593 61.4522L66.4026 61.3727L66.545 61.3089L66.6872 61.2294L66.8305 61.1658L66.9887 61.1179L67.1469 61.0543L67.2902 61.0066L67.4166 60.9746L67.5592 60.9428L67.7023 60.911L67.8605 60.8793L68.0029 60.8473L68.161 60.8315L68.3203 60.8155L68.4785 60.7995L68.6367 60.7837H68.7949H68.9699H69.1443H69.3183L69.4925 60.7995L69.6666 60.8155H69.8248L69.9999 60.8315L70.1581 60.8633L70.3323 60.8793L70.4906 60.911L70.6339 60.9428L70.7921 60.9746L70.9503 61.0066L71.0927 61.0383L71.2518 61.0861L71.3942 61.1339L71.5366 61.1658L71.6956 61.2294L71.838 61.2771L71.9802 61.3407L72.1226 61.4044L72.2817 61.4682L72.4241 61.5477L72.5505 61.6115L72.6938 61.691L72.8362 61.7705L72.9626 61.8503L73.1057 61.9458L73.2323 62.0252L73.3596 62.1208L73.486 62.2164L73.6123 62.3117L73.5178 62.4392L73.4383 62.5665L73.3436 62.6938L73.2481 62.8213L73.1536 62.9644L73.0739 63.0917L72.9784 63.2192L72.8838 63.3465L72.8044 63.4738L72.7096 63.6012L72.6143 63.7285L72.5345 63.8558L72.4401 63.9991L72.3444 64.1264L72.2499 64.2537L72.1704 64.381L72.0758 64.5083L71.9485 64.413L71.8063 64.3333L71.6797 64.2537L71.5524 64.1582L71.4101 64.0946L71.2827 64.0149L71.1405 63.9512L71.014 63.8876L70.8708 63.8239L70.7443 63.7603L70.6021 63.7126L70.4748 63.6488L70.3005 63.6012L70.1423 63.5533L69.9841 63.5057L69.8248 63.4738L69.6666 63.442L69.5084 63.41L69.3503 63.394L69.191 63.3782L69.0488 63.3623H68.8904H68.7004L68.5263 63.394L68.367 63.426L68.2248 63.4578L68.0984 63.5215L67.9869 63.5851L67.8445 63.7126L67.749 63.8558L67.6865 63.9991L67.6703 64.1582V64.1902L67.6865 64.397L67.7649 64.5721L67.8287 64.6676L67.9391 64.7791L68.0824 64.8586L68.2088 64.9382L68.367 65.0019L68.5421 65.0656L68.7322 65.1292L68.8586 65.161L68.985 65.2087L69.1283 65.2405L69.2705 65.2883L69.4287 65.3202L69.604 65.368L69.7781 65.4156L69.9523 65.4635L70.1263 65.4953L70.2845 65.5431L70.4587 65.5908L70.6179 65.6226L70.7763 65.6704L70.9345 65.7181L71.0767 65.7659L71.236 65.8136L71.3784 65.8614L71.5206 65.9092L71.6956 65.9718L71.8538 66.0516L72.012 66.1151L72.1704 66.1947L72.3137 66.2744L72.4561 66.3539L72.5823 66.4335L72.7096 66.529L72.8362 66.6085L72.9626 66.72L73.0899 66.8313L73.2003 66.9588L73.3117 67.0701L73.4063 67.1976L73.5018 67.3407L73.5805 67.468L73.6602 67.6115L73.7238 67.7388L73.7715 67.8819L73.8184 68.0252L73.8502 68.1684L73.8819 68.3277L73.9137 68.487L73.9297 68.646L73.9457 68.8211V68.9962V69.0279V69.2032L73.9297 69.3782ZM62.8164 72.5609H62.6573H62.4991H62.3409H62.1827H62.0234H61.8651H61.7071H61.5487H61.3736H61.2154H61.0572H60.899H60.7396H60.5816H60.4232H60.265H60.1058H59.9476H59.7894H59.6312H59.4728H59.3137H59.1555H58.9973H58.839H58.6797H58.5215H58.3633H58.1892H58.0301H57.8717H57.7135H57.5553H57.3962H57.2379H57.0797H56.9213H56.7622H56.604H56.4458H56.2875H56.1282H55.9702H55.8118H55.6536H55.4945H55.3362H55.162H55.0038H54.8456H54.6863H54.5281H54.3698H54.2118H54.0527H53.8943H53.7361V72.4017V72.2424V72.0833V71.925V71.7657V71.6066V71.4475V71.2885V71.1292V70.9699V70.8109V70.6516V70.4923V70.3333V70.174V70.0149V69.8558V69.6966V69.5533V69.394V69.235V69.0759V68.9166V68.7574V68.5983V68.439V68.2798V68.1207V67.9616V67.8025V67.6433V67.484V67.3249V67.1657V67.0064V66.8473V66.6881V66.529V66.3699V66.2106V66.0516V65.8932V65.7341V65.5748V65.4156V65.2565V65.0974V64.9382V64.7791V64.6198V64.4606V64.3015V64.1422V63.9831V63.8399V63.6808V63.5215V63.3623V63.2032V63.0439V62.8848V62.7256V62.5665V62.4072V62.2481V62.0889V61.9296V61.7705V61.6115V61.4522V61.2931V61.1339V60.9746H53.8943H54.0527H54.2118H54.3698H54.5281H54.6863H54.8456H55.0038H55.162H55.3204H55.4794H55.6378H55.7958H55.9542H56.0973H56.2557H56.4139H56.5722H56.7313H56.8895H57.0477H57.2061H57.3652H57.5234H57.6816H57.8399H57.9992H58.1574H58.3156H58.4738H58.633H58.7914H58.9494H59.1076H59.266H59.4252H59.5834H59.7416H59.8998H60.0591H60.2173H60.3755H60.5337H60.6771H60.8353H60.9935H61.1519H61.311H61.4691H61.6273H61.7855H61.9448H62.103H62.2612H62.4196H62.5786H62.737H62.8952V61.1339V61.2771V61.4362V61.5955V61.7546V61.8979V62.0571V62.2164V62.3595V62.5187V62.6778V62.8213V62.9804V63.1394V63.2987V63.442V63.6012H62.737H62.5786H62.4196H62.2612H62.103H61.9448H61.8015H61.6433H61.4851H61.3268H61.1677H61.0095H60.8511H60.6929H60.5337H60.3755H60.2173H60.0591H59.8998H59.7576H59.5992H59.441H59.2818H59.1238H58.9654H58.8072H58.6479H58.4897H58.3315H58.1734H58.0141H57.8557H57.7135H57.5553H57.3962H57.2379H57.0797H56.9213H56.7622V63.7603V63.9194V64.0785V64.2377V64.397V64.5403V64.6994V64.8586V65.0177V65.177V65.336V65.4953H56.9213H57.0797H57.2379H57.3962H57.5553H57.7135H57.8717H58.0301H58.1734H58.3315H58.4897H58.6479H58.8072H58.9654H59.1238H59.2818H59.441H59.5992H59.7576H59.9158H60.0749H60.2331H60.3914H60.5498H60.7089H60.8671H61.0095H61.1677H61.3268H61.4851H61.6433H61.8015H61.9606H62.119H62.2772V65.6544V65.7977V65.956V66.1151V66.2584V66.4175V66.5767V66.72V66.8793V67.0384V67.1976V67.3407V67.4998V67.6591V67.8025V67.9616H62.119H61.9606H61.8015H61.6433H61.4851H61.3268H61.1677H61.0095H60.8671H60.7089H60.5498H60.3914H60.2331H60.0749H59.9158H59.7576H59.5992H59.441H59.2818H59.1238H58.9654H58.8072H58.6479H58.4897H58.3315H58.1734H58.0301H57.8717H57.7135H57.5553H57.3962H57.2379H57.0797H56.9213H56.7622V68.1207V68.2959V68.455V68.6143V68.7893V68.9486V69.1077V69.2827V69.4418V69.6011V69.7761V69.9352H56.9213H57.0797H57.2379H57.3962H57.5553H57.7135H57.8717H58.0301H58.1892H58.3633H58.5215H58.6797H58.839H58.9973H59.1555H59.3137H59.4728H59.6312H59.7894H59.9476H60.1058H60.265H60.4232H60.5816H60.7396H60.899H61.0572H61.2154H61.3736H61.5487H61.7071H61.8651H62.0234H62.1827H62.3409H62.4991H62.6573H62.8164H62.9747V70.0945V70.2377V70.397V70.5561V70.7153V70.8586V71.0177V71.1768V71.3202V71.4793V71.6384V71.7819V71.9401V72.0991V72.2582V72.4017V72.5609H62.8164ZM51.2379 72.5609H51.0797H50.9213H50.7464H50.5882H50.4298H50.2717H50.1124H49.9542H49.78H49.6218H49.4635H49.3044H49.1462H48.988H48.8138H48.6546H48.4964H48.338V72.4017V72.2424V72.0833V71.9241V71.7639V71.6048V71.4456V71.2863V71.1272V70.9682V70.8089V70.6489V70.4897V70.3304V70.1713V70.0121V69.8519V69.6927V69.5336V69.3745V69.2152V69.0562V68.896V68.7369V68.5777V68.4184V68.2593V68.1001V67.9399V67.7807V67.6216V67.4625V67.3034V67.1442V66.984V66.8249V66.6657V66.5066V66.3473V66.1872V66.0281V65.8689V65.7096L48.2586 65.8369L48.164 65.9812L48.0843 66.1085L47.9898 66.236L47.9103 66.3791L47.8146 66.5066L47.7361 66.6339L47.6564 66.7781L47.5619 66.9054L47.4822 67.0327L47.3869 67.1601L47.3082 67.3043L47.2127 67.4316L47.1341 67.5589L47.0543 67.7022L46.9588 67.8304L46.8802 67.9579L46.7846 68.101L46.7062 68.2284L46.6106 68.3558L46.532 68.4999L46.4523 68.6274L46.3569 68.7547L46.2783 68.898L46.1828 69.0262L46.1041 69.1535L46.0086 69.2809L45.9289 69.424L45.8502 69.5522L45.7549 69.6797L45.6762 69.823L45.5807 69.9503L45.5012 70.0776L45.4065 70.2219L45.327 70.3492H45.2641L45.1688 70.206L45.0891 70.0776L44.9944 69.9343L44.9149 69.807L44.8203 69.6639L44.7407 69.5355L44.6463 69.3923L44.5666 69.2648L44.471 69.1217L44.3924 68.9944L44.2969 68.85L44.2184 68.7227L44.1229 68.5795L44.0432 68.4522L43.9487 68.308L43.869 68.1807L43.7745 68.0374L43.679 67.9101L43.5995 67.7659L43.5048 67.6386L43.4253 67.4954L43.3307 67.3681L43.2511 67.2237L43.1565 67.0964L43.0769 66.9531L42.9814 66.8258L42.9028 66.6825L42.8072 66.5542L42.7286 66.4111L42.6331 66.2836L42.5535 66.1403L42.4591 66.0132L42.3792 65.8689L42.2847 65.7416V65.9006V66.0599V66.2192V66.3791V66.5384V66.6975V66.8567V67.016V67.1759V67.3352V67.4785V67.6376V67.7968V67.9559V68.1161V68.2753V68.4344V68.5935V68.7527V68.912V69.072V69.2312V69.3905V69.5496V69.7088V69.8679V70.0281V70.1871V70.3464V70.5055V70.6647V70.8247V70.9682V71.1272V71.2863V71.4456V71.6048V71.7639V71.9241V72.0833V72.2424V72.4017V72.5609H42.1265H41.9675H41.8091H41.6509H41.4927H41.3336H41.1752H41.017H40.8587H40.6996H40.5414H40.383H40.2248H40.0658H39.9076H39.7492H39.5908H39.4317H39.2735V72.4017V72.2424V72.0833V71.925V71.7657V71.6066V71.4475V71.2885V71.1292V70.9699V70.8109V70.6516V70.4923V70.3333V70.174V70.0149V69.8558V69.6966V69.5533V69.394V69.235V69.0759V68.9166V68.7574V68.5983V68.439V68.2798V68.1207V67.9616V67.8025V67.6433V67.484V67.3249V67.1657V67.0064V66.8473V66.6881V66.529V66.3699V66.2106V66.0516V65.8932V65.7341V65.5748V65.4156V65.2565V65.0974V64.9382V64.7791V64.6198V64.4606V64.3015V64.1422V63.9831V63.8399V63.6808V63.5215V63.3623V63.2032V63.0439V62.8848V62.7256V62.5665V62.4072V62.2481V62.0889V61.9296V61.7705V61.6115V61.4522V61.2931V61.1339V60.9746H39.4317H39.5908H39.7334H39.8914H40.0498H40.2089H40.3512H40.5094H40.6687H40.8269H40.9693H41.1275H41.2867H41.4449H41.5872H41.7453H41.9046H42.063H42.2052H42.3634H42.5226L42.6013 61.1021L42.6808 61.2452L42.7753 61.3716L42.855 61.5149L42.9346 61.6422L43.0132 61.7856L43.0927 61.9119L43.1876 62.0553L43.2669 62.1826L43.3466 62.3099L43.4253 62.4521L43.5048 62.5796L43.5995 62.7227L43.679 62.8502L43.7585 62.9924L43.8372 63.1197L43.9327 63.247L44.0124 63.3896L44.0909 63.5167L44.1705 63.66L44.2493 63.7875L44.3448 63.9297L44.4243 64.0572L44.5028 64.2003L44.5825 64.3267L44.6612 64.454L44.7567 64.5973L44.8363 64.7247L44.9149 64.868L44.9944 64.9944L45.0731 65.1377L45.1688 65.265L45.2483 65.4072L45.327 65.5347L45.4065 65.4072L45.4861 65.265L45.5807 65.1377L45.6601 64.9944L45.7389 64.868L45.8184 64.7247L45.9131 64.5973L45.9926 64.454L46.0723 64.3267L46.1508 64.2003L46.2463 64.0572L46.325 63.9297L46.4047 63.7875L46.4841 63.66L46.5787 63.5167L46.6582 63.3896L46.7379 63.247L46.8164 63.1197L46.8963 62.9924L46.9908 62.8502L47.0703 62.7227L47.1499 62.5796L47.2287 62.4521L47.324 62.3099L47.4029 62.1826L47.4822 62.0553L47.5619 61.9119L47.6564 61.7856L47.7361 61.6422L47.8146 61.5149L47.8943 61.3716L47.9898 61.2452L48.0685 61.1021L48.148 60.9746H48.3062H48.4646H48.6077H48.7661H48.9243H49.0824H49.2257H49.3841H49.5421H49.7005H49.8438H50.002H50.1602H50.3185H50.4616H50.62H50.7782H50.9364H51.0797H51.2379H51.3961V61.1339V61.2931V61.4522V61.6115V61.7705V61.9296V62.0889V62.2481V62.4072V62.5665V62.7256V62.8848V63.0439V63.2032V63.3623V63.5215V63.6808V63.8399V63.9831V64.1422V64.3015V64.4606V64.6198V64.7791V64.9382V65.0974V65.2565V65.4156V65.5748V65.7341V65.8932V66.0516V66.2106V66.3699V66.529V66.6881V66.8473V67.0064V67.1657V67.3249V67.484V67.6433V67.8025V67.9616V68.1207V68.2798V68.439V68.5983V68.7574V68.9166V69.0759V69.235V69.394V69.5533V69.6966V69.8558V70.0149V70.174V70.3333V70.4923V70.6516V70.8109V70.9699V71.1292V71.2885V71.4475V71.6066V71.7657V71.925V72.0833V72.2424V72.4017V72.5609H51.2379ZM32.8513 67.7865L32.8036 67.6424L32.7409 67.4831L32.6772 67.3398L32.6294 67.1957L32.5667 67.0524L32.5032 66.8931L32.4552 66.749L32.3915 66.6057L32.329 66.4626L32.2811 66.3184L32.2173 66.1591L32.1706 66.0159L32.1069 65.8717L32.0431 65.7284L31.9956 65.5851L31.9327 65.4252L31.8692 65.2817L31.8214 65.1386L31.7577 64.9944L31.695 64.8352L31.6472 64.691L31.5835 64.5477L31.5208 64.691L31.4732 64.8352L31.4095 64.9944L31.3457 65.1386L31.2989 65.2817L31.2353 65.4252L31.1716 65.5851L31.1089 65.7284L31.061 65.8717L30.9974 66.0159L30.9337 66.1591L30.8868 66.3184L30.8232 66.4626L30.7595 66.6057L30.7119 66.749L30.6491 66.8931L30.5853 67.0524L30.5217 67.1957L30.4751 67.3398L30.4113 67.4831L30.3476 67.6424L30.2998 67.7865L30.2371 67.9298H30.3953H30.5535H30.7119H30.871H31.0292H31.1874H31.3457H31.505H31.6472H31.8054H31.9647H32.1229H32.2811H32.4394H32.5976H32.7567H32.9149L32.8513 67.7865ZM37.828 72.5609H37.6689H37.5263H37.3683H37.209H37.0508H36.8925H36.7503H36.591H36.4328H36.2746H36.1162H35.9572H35.8148H35.6566H35.4982H35.3391H35.1809H35.0385H34.8803H34.7213L34.6584 72.4175L34.6106 72.2742L34.5471 72.1309L34.4833 71.9718L34.4365 71.8294L34.3729 71.6863L34.3092 71.5431L34.2623 71.3998L34.1987 71.2565L34.135 71.1132L34.0874 70.9699L34.0246 70.8109L33.9608 70.6676L33.9131 70.5243L33.8493 70.381H33.6911H33.5329H33.3747H33.2165H33.0733H32.9149H32.7567H32.5976H32.4394H32.2811H32.1229H31.9647H31.8054H31.6472H31.505H31.3457H31.1874H31.0292H30.871H30.7119H30.5535H30.3953H30.2371H30.079H29.9355H29.7775H29.6191H29.4598H29.3017L29.239 70.5243L29.1912 70.6676L29.1275 70.8109L29.0639 70.9699L29.017 71.1132L28.9535 71.2565L28.8897 71.3998L28.842 71.5431L28.7793 71.6863L28.7156 71.8294L28.6678 71.9718L28.605 72.1309L28.5414 72.2742L28.4936 72.4175L28.4299 72.5609H28.2717H28.1135H27.9553H27.7961H27.6379H27.4637H27.3055H27.1471H26.988H26.8298H26.6717H26.5133H26.354H26.196H26.0378H25.8636H25.7044H25.5462H25.3878H25.2296L25.2923 72.4175L25.356 72.2742L25.4196 72.1309L25.4825 71.9718L25.5302 71.8294L25.5939 71.6863L25.6575 71.5431L25.7202 71.3998L25.7839 71.2565L25.8477 71.0972L25.9103 70.954L25.9741 70.8109L26.0217 70.6676L26.0854 70.5243L26.1481 70.381L26.2118 70.2219L26.2754 70.0787L26.3382 69.9352L26.402 69.7921L26.4655 69.6488L26.5133 69.5055L26.576 69.3463L26.6397 69.2032L26.7034 69.0599L26.7661 68.9166L26.8298 68.7733L26.8936 68.6301L26.9563 68.4708L27.004 68.3277L27.0678 68.1844L27.1313 68.0411L27.1942 67.8979L27.2577 67.7546L27.3213 67.5955L27.3842 67.4522L27.4477 67.3089L27.4955 67.1657L27.5592 67.0226L27.6219 66.8793L27.6856 66.72L27.7494 66.5767L27.812 66.4335L27.8756 66.2902L27.9393 66.1471L27.9871 66.0036L28.0499 65.8614L28.1135 65.7021L28.1771 65.559L28.2399 65.4156L28.3035 65.2723L28.3672 65.1292L28.4299 64.9859L28.4777 64.8267L28.5414 64.6836L28.605 64.5403L28.6678 64.397L28.7316 64.2537L28.7951 64.1104L28.858 63.9512L28.9215 63.8081L28.9693 63.6648L29.0328 63.5215L29.0957 63.3782L29.1593 63.235L29.223 63.0759L29.2857 62.9326L29.3494 62.7893L29.4132 62.646L29.4598 62.5029L29.5236 62.3595L29.5873 62.2004L29.6511 62.0571L29.7137 61.9138L29.7775 61.7705L29.841 61.6273L29.9037 61.4842L29.9516 61.3249L30.0152 61.1816L30.079 61.0383L30.1416 60.8951H30.2998H30.4431H30.6013H30.7595H30.9187H31.061H31.2192H31.3775H31.5368H31.6792H31.8372H31.9956H32.1546H32.297H32.4552H32.6134H32.7727H32.9149H33.0733L33.1368 61.0383L33.2006 61.1816L33.2634 61.3249L33.327 61.4842L33.3747 61.6273L33.4374 61.7705L33.5012 61.9138L33.5647 62.0571L33.6285 62.2004L33.6911 62.3595L33.7549 62.5029L33.8186 62.646L33.8653 62.7893L33.929 62.9326L33.9928 63.0759L34.0565 63.235L34.1192 63.3782L34.1828 63.5215L34.2465 63.6648L34.3092 63.8081L34.3569 63.9512L34.4205 64.1104L34.4833 64.2537L34.5471 64.397L34.6106 64.5403L34.6744 64.6836L34.7371 64.8267L34.8006 64.9859L34.8486 65.1292L34.9112 65.2723L34.9748 65.4156L35.0385 65.559L35.1023 65.7021L35.1649 65.8614L35.2287 66.0036L35.2922 66.1471L35.3391 66.2902L35.4027 66.4335L35.4664 66.5767L35.5293 66.72L35.5928 66.8793L35.6566 67.0226L35.7203 67.1657L35.783 67.3089L35.8307 67.4522L35.8943 67.5955L35.9572 67.7546L36.0207 67.8979L36.0845 68.0411L36.148 68.1844L36.2109 68.3277L36.2746 68.4708L36.3222 68.6301L36.385 68.7733L36.4486 68.9166L36.5123 69.0599L36.575 69.2032L36.6388 69.3463L36.7025 69.5055L36.7662 69.6488L36.8129 69.7921L36.8767 69.9352L36.9404 70.0787L37.0031 70.2219L37.0666 70.381L37.1304 70.5243L37.1939 70.6676L37.2566 70.8109L37.3046 70.954L37.3683 71.0972L37.431 71.2565L37.4945 71.3998L37.5581 71.5431L37.6209 71.6863L37.6845 71.8294L37.7482 71.9718L37.7962 72.1309L37.8587 72.2742L37.9224 72.4175L37.986 72.5609H37.828ZM23.9451 71.0813L23.8178 71.1768L23.7072 71.2565L23.5799 71.352L23.4535 71.4316L23.327 71.5271L23.1997 71.6066L23.0733 71.6863L22.93 71.7657L22.7877 71.8454L22.6453 71.925L22.5022 71.9876L22.3598 72.0674L22.2016 72.1309L22.0594 72.1947L21.9001 72.2582L21.7579 72.322L21.6153 72.3697L21.4722 72.4175L21.3298 72.4654L21.1716 72.513L21.0294 72.5609L20.8702 72.5927L20.7278 72.6245L20.5696 72.6563L20.4105 72.6881L20.2521 72.704L20.0779 72.72L19.9197 72.736L19.7456 72.7518L19.5863 72.7678L19.4123 72.7836H19.2381H19.0638H18.8898H18.7305L18.5723 72.7678L18.3982 72.7518L18.24 72.736L18.0818 72.72L17.9225 72.704L17.7643 72.6723L17.606 72.6403L17.4637 72.6085L17.3047 72.5767L17.1623 72.529L17.0041 72.4972L16.8608 72.4493L16.7184 72.3857L16.576 72.3379L16.418 72.2742L16.2747 72.2106L16.1323 72.1471L15.9901 72.0833L15.8467 72.0038L15.7204 71.925L15.578 71.8454L15.4507 71.7657L15.3243 71.6863L15.197 71.5906L15.0706 71.4953L14.944 71.3998L14.8327 71.3043L14.7223 71.2087L14.6108 71.0972L14.5003 71.0019L14.3888 70.8904L14.2784 70.7789L14.1829 70.6676L14.0882 70.5403L13.9927 70.4288L13.9132 70.3015L13.8185 70.174L13.7392 70.0469L13.6603 69.9194L13.5808 69.7761L13.5013 69.6488L13.4386 69.5055L13.3749 69.3623L13.3113 69.219L13.2484 69.0759L13.2007 68.9486L13.1369 68.8051L13.1052 68.6618L13.0583 68.5187L13.0265 68.3597L12.9788 68.2162L12.947 68.0571L12.931 67.9138L12.899 67.7546L12.8834 67.6115L12.8672 67.4522L12.8523 67.293L12.8365 67.1339V66.9588V66.7996V66.7678V66.6085L12.8523 66.4335V66.2744L12.8672 66.1151L12.8834 65.94L12.9152 65.7819L12.931 65.6226L12.9628 65.4793L13.0105 65.3202L13.0425 65.161L13.0892 65.0177L13.1369 64.8586L13.1847 64.7153L13.2484 64.5561L13.3113 64.413L13.3749 64.2697L13.4386 64.1264L13.5013 63.9831L13.5808 63.8399L13.6603 63.7126L13.7392 63.5851L13.8185 63.4578L13.8983 63.3305L13.9927 63.2032L14.0882 63.0759L14.1829 62.9486L14.2784 62.8369L14.3888 62.7256L14.4843 62.6141L14.595 62.5029L14.7063 62.3913L14.8167 62.2959L14.944 62.1844L15.0546 62.0889L15.181 61.9934L15.3083 61.9138L15.4347 61.8183L15.5622 61.7388L15.6885 61.6592L15.8309 61.5795L15.9741 61.5L16.1164 61.4204L16.2587 61.3567L16.4018 61.2931L16.5602 61.2134L16.6866 61.1658L16.8448 61.1179L16.9883 61.0543L17.1305 61.0224L17.2727 60.9746L17.4318 60.9428L17.5742 60.8951L17.7324 60.8633L17.8907 60.8473L18.0498 60.8155L18.2082 60.7995L18.3662 60.7837L18.5246 60.7678L18.6838 60.7518H18.858H19.0162H19.1902H19.3644L19.5396 60.7678L19.7138 60.7837H19.872L20.0302 60.7995L20.2044 60.8315L20.3476 60.8473L20.5058 60.8793L20.6642 60.911L20.8073 60.9428L20.9495 60.9746L21.0921 61.0066L21.2354 61.0543L21.3776 61.0861L21.504 61.1339L21.6473 61.1816L21.7897 61.2452L21.9319 61.3089L22.0752 61.3727L22.2176 61.4522L22.3598 61.5159L22.4872 61.5955L22.6295 61.675L22.7559 61.7546L22.8992 61.8343L23.0256 61.9296L23.152 62.0093L23.2793 62.1049L23.4057 62.2004L23.533 62.3117L23.6594 62.4072L23.5639 62.5347L23.4535 62.646L23.3579 62.7733L23.2475 62.9006L23.152 63.0281L23.0573 63.1394L22.9458 63.2667L22.8514 63.394L22.7559 63.5057L22.6453 63.633L22.5499 63.7603L22.4393 63.8876L22.3438 63.9991L22.2493 64.1264L22.138 64.2537L22.0432 64.381L21.9319 64.4925L21.8372 64.6198L21.7099 64.5243L21.5835 64.413L21.4562 64.3333L21.3298 64.2377L21.2034 64.1582L21.0761 64.0785L20.9495 63.9991L20.8073 63.9194L20.68 63.8558L20.5536 63.7921L20.4263 63.7443L20.2839 63.6966L20.1417 63.6488L19.9984 63.617L19.8402 63.5851L19.682 63.5533L19.5236 63.5375L19.3495 63.5215L19.1744 63.5057H19.0002H18.842L18.6838 63.5215L18.5406 63.5375L18.3824 63.5693L18.24 63.6012L18.0967 63.6488L17.9545 63.6966L17.8121 63.7603L17.6697 63.8239L17.5424 63.9034L17.4162 63.9831L17.2887 64.0629L17.1783 64.1582L17.0668 64.2537L16.9563 64.3492L16.8608 64.4606L16.7504 64.5721L16.6548 64.6994L16.576 64.8109L16.4965 64.9382L16.418 65.0814L16.3383 65.2087L16.2747 65.352L16.227 65.4953L16.1641 65.6386L16.1164 65.7977L16.0846 65.956L16.0528 66.0991L16.0208 66.2744L16.005 66.4335L15.9901 66.5925V66.7678V66.7996V66.9588L16.005 67.1179L16.0208 67.2612L16.0368 67.4204L16.0686 67.5635L16.1005 67.707L16.1323 67.8501L16.1801 67.9934L16.227 68.1207L16.2907 68.2798L16.3543 68.4232L16.4329 68.5665L16.5125 68.6938L16.592 68.8211L16.6866 68.9486L16.7821 69.0599L16.8926 69.1714L16.9883 69.2827L17.0985 69.3782L17.226 69.4738L17.3524 69.5693L17.4787 69.6488L17.606 69.7284L17.7485 69.7921L17.8907 69.8558L18.0338 69.9194L18.1922 69.9672L18.3504 70.0149L18.5097 70.0469L18.6679 70.0787L18.8261 70.0945L19.0002 70.1104H19.1744H19.3644L19.5396 70.0945L19.7138 70.0787L19.872 70.0627L20.0302 70.0307L20.1894 69.9989L20.3476 69.9514L20.4898 69.9194L20.6324 69.8558L20.7597 69.7921L20.9019 69.7284L21.0133 69.6648L21.1398 69.5851V69.426V69.2669V69.1077V68.9486V68.7733V68.6143V68.455V68.2959V68.1367H20.9815H20.8384H20.68H20.5218H20.3636H20.2203H20.062H19.9038H19.7456H19.6025H19.4441H19.2859H19.1275H18.9844H18.8261V67.9776V67.8343V67.675V67.516V67.3567V67.2134V67.0543V66.8951V66.736V66.5925V66.4335V66.2744V66.1151V65.9718V65.8136H18.9844H19.1435H19.3019H19.4599H19.6183H19.7765H19.9357H20.0939H20.2521H20.4105H20.5696H20.7278H20.886H21.0441H21.2034H21.3618H21.52H21.6782H21.8372H21.9956H22.1538H22.312H22.4711H22.6295H22.7877H22.9458H23.1051H23.2633H23.4217H23.5799H23.7389H23.8971H24.0555V65.9718V66.1309V66.2902V66.4335V66.5925V66.7518V66.9109V67.0701V67.2294V67.3725V67.5318V67.691V67.8501V68.0094V68.1684V68.3277V68.4708V68.6301V68.7893V68.9486V69.1077V69.2669V69.426V69.5693V69.7284V69.8876V70.0469V70.206V70.365V70.5085V70.6676V70.8267V70.9859L23.9451 71.0813ZM25.7169 34.7594H18.8489V46.3173H26.099V51.6301H13.0167V13.2888H25.9904V18.6013H18.8489V29.4469H25.7169V34.7594ZM68.0422 35.9103V44.5646C68.0422 46.0985 67.3332 46.8101 65.8623 46.8101H64.7714C63.2454 46.8101 62.5365 46.0985 62.5365 44.5646V20.3541C62.5365 18.8204 63.2454 18.1088 64.7714 18.1088H65.7527C67.2246 18.1088 67.9335 18.8204 67.9335 20.3541V27.8588H73.6564V20.0254C73.6564 15.2606 71.3669 12.96 66.6255 12.96H63.7903C59.0488 12.96 56.7041 15.315 56.7041 20.0807V44.8381C56.7041 49.6039 59.0488 51.9587 63.7903 51.9587H66.6797C71.4223 51.9587 73.7657 49.6039 73.7657 44.8381V35.9103H68.0422ZM53.6216 51.6301H47.7884V13.2886H53.6216V51.6301ZM39.3257 30.3231C39.3257 31.8569 38.6178 32.5694 37.1459 32.5694H34.7471V18.4374H37.1459C38.6178 18.4374 39.3257 19.1492 39.3257 20.6827V30.3231ZM38.072 13.2886H28.9147V51.6301H34.7471V37.7172H38.072C42.8145 37.7172 45.1581 35.3624 45.1581 30.5976V20.4093C45.1581 15.6436 42.8145 13.2886 38.072 13.2886ZM60.1648 86.2986H26.7765L43.1229 91.9186L60.1648 86.2986Z" fill="#F2F3FF"/>
</svg>
