<svg width="134" height="100" viewBox="0 0 134 100" fill="none" xmlns="http://www.w3.org/2000/svg">
<path d="M66.8607 0C49.8324 0 35.8825 13.1299 34.5569 29.816L51.9311 36.9994C53.4033 35.9926 55.1817 35.4027 57.095 35.4027C57.2665 35.4027 57.4372 35.41 57.6065 35.4181L65.3329 24.219C65.3329 24.1655 65.3329 24.1135 65.3329 24.0608C65.3329 17.3199 70.8163 11.8358 77.5578 11.8358C84.2986 11.8358 89.782 17.3199 89.782 24.0608C89.782 30.8016 84.2986 36.2864 77.5578 36.2864C77.4648 36.2864 77.3724 36.2864 77.2801 36.2791L66.2606 44.1418C66.2679 44.2847 66.2716 44.4305 66.2716 44.5756C66.2716 49.6362 62.1556 53.7514 57.0957 53.7514C52.6544 53.7514 48.9406 50.5815 48.0994 46.3834L35.6737 41.2495C39.5208 54.8557 52.0212 64.8311 66.8607 64.8311C84.764 64.8311 99.2766 50.3177 99.2766 32.4166C99.2766 14.5127 84.7632 0 66.8607 0Z" fill="white"/>
<path d="M54.8702 49.1857L50.8883 47.5406C51.594 49.0098 52.8148 50.2401 54.4357 50.9158C57.9398 52.3755 61.9796 50.7128 63.4401 47.2057C64.1472 45.5101 64.1516 43.6378 63.4503 41.9378C62.7505 40.237 61.43 38.9107 59.7322 38.2028C58.0475 37.5015 56.2427 37.5272 54.657 38.1259L58.7701 39.8266C61.3546 40.9038 62.5768 43.8716 61.4997 46.4561C60.4247 49.0413 57.4547 50.2636 54.8702 49.1857Z" fill="white"/>
<path d="M85.7017 24.0608C85.7017 19.5696 82.0481 15.9152 77.5561 15.9152C73.0649 15.9152 69.4106 19.5696 69.4106 24.0608C69.4106 28.5527 73.0649 32.2056 77.5561 32.2056C82.0481 32.2056 85.7017 28.5519 85.7017 24.0608ZM71.4506 24.0468C71.4506 20.6673 74.1905 17.9281 77.5701 17.9281C80.9496 17.9281 83.6895 20.6673 83.6895 24.0468C83.6895 27.4264 80.9496 30.1655 77.5701 30.1655C74.1905 30.1655 71.4506 27.4257 71.4506 24.0468Z" fill="white"/>
<path d="M17.5651 77.1351L15.3932 80.9529C13.7202 79.7841 11.453 79.0806 9.47379 79.0806C7.2117 79.0806 5.8121 80.0171 5.8121 81.6944C5.8121 83.7323 8.29841 84.2064 11.9938 85.5327C15.9662 86.9375 18.2495 88.5884 18.2495 92.2266C18.2495 97.2044 14.335 100 8.70876 100C5.96671 100 2.65895 99.2921 0.116211 97.7452L1.70048 93.5127C3.76618 94.6038 6.23711 95.2508 8.43984 95.2508C11.4091 95.2508 12.8204 94.1553 12.8204 92.5359C12.8204 90.6827 10.6682 90.1258 7.19412 88.9753C3.23492 87.6534 0.491394 85.9189 0.491394 81.8923C0.491394 77.3513 4.12817 74.7433 9.36094 74.7433C13.008 74.7433 15.9391 75.8989 17.5651 77.1351Z" fill="white"/>
<path d="M29.4298 99.5817V79.5483H22.0067V75.1618H41.9449V79.5483H34.5438V99.5817H29.4298Z" fill="white"/>
<path d="M62.5123 85.0375V89.4239H52.7253V95.155H64.0805V99.5817H47.6127V75.1618H64.0805V79.5351H52.7253V85.0375H62.5123Z" fill="white"/>
<path d="M75.495 94.8406L73.8785 99.5824H68.5175L77.6735 75.1625H82.8213L92.236 99.5816H86.694L85.0423 94.8398L75.495 94.8406ZM80.2185 80.9874L76.8836 90.7648H83.6222L80.2185 80.9874Z" fill="white"/>
<path d="M108.913 98.8702L102.339 84.7283V99.5817H97.4418V75.1618H102.328L110.535 92.7896L118.451 75.1618H123.379V99.5817H118.483V84.6008L111.8 98.8702H108.913Z" fill="white"/>
<path d="M133.266 78.2425C133.266 80.3412 131.693 81.6492 129.888 81.6492C128.077 81.6492 126.501 80.3412 126.501 78.2425C126.501 76.1446 128.077 74.8453 129.888 74.8453C131.694 74.8453 133.266 76.1446 133.266 78.2425ZM127.069 78.2425C127.069 79.9982 128.334 81.1011 129.888 81.1011C131.438 81.1011 132.697 79.9982 132.697 78.2425C132.697 76.4816 131.438 75.3957 129.888 75.3957C128.338 75.3957 127.069 76.4948 127.069 78.2425ZM129.935 76.5065C130.811 76.5065 131.106 76.9697 131.106 77.4701C131.106 77.9289 130.834 78.2366 130.503 78.3934L131.287 79.8641H130.645L129.983 78.5605H129.301V79.8641H128.766V76.5065H129.935ZM129.306 78.0688H129.902C130.289 78.0688 130.516 77.8263 130.516 77.5214C130.516 77.2137 130.353 77.0158 129.901 77.0158H129.305V78.0688H129.306Z" fill="white"/>
</svg>
