<svg width="127" height="100" viewBox="0 0 127 100" fill="none" xmlns="http://www.w3.org/2000/svg">
<path d="M31.8516 99.2958H26.0573L16.094 85.5634L6.06001 99.2958H0.265747L13.1262 81.6197L1.32567 65.3521H7.11994L16.094 77.6761L25.068 65.3521H30.8623L18.9911 81.6197L31.8516 99.2958ZM61.9535 89.6479C61.9535 92.6056 60.9642 95 58.9857 96.6901C57.0072 98.3803 54.1807 99.2958 50.5063 99.2958H34.6074V84.1549H26.9759L30.1557 79.7887H34.6074V65.3521H49.8703C53.3327 65.3521 55.9472 66.1972 57.7844 67.8169C59.6216 69.4366 60.5402 71.6197 60.5402 74.2254C60.5402 77.4648 59.0563 80 56.0886 81.6197C57.9964 82.3239 59.4097 83.4507 60.3989 84.7887C61.4588 86.1268 61.9535 87.8169 61.9535 89.6479ZM39.7657 79.8592H49.517C51.4955 79.8592 52.9794 79.4366 53.9687 78.5211C54.958 77.6761 55.4526 76.338 55.4526 74.5775C55.4526 73.0986 54.958 71.9014 53.898 71.0563C52.9088 70.2113 51.4249 69.7887 49.517 69.7887H39.7657V79.8592ZM56.7245 89.507C56.7245 87.7465 56.1592 86.338 55.0993 85.493C54.0394 84.5775 52.4141 84.1549 50.2943 84.1549H39.7657V94.7887H50.2236C52.2728 94.7887 53.898 94.2958 55.0286 93.4507C56.1592 92.5352 56.7245 91.1972 56.7245 89.507ZM97.0017 82.3239C97.0017 84.9296 96.6484 87.3944 95.8711 89.507C95.0939 91.6197 93.9633 93.5211 92.4794 95.1409C90.9248 96.7606 89.1583 98.0282 87.1797 98.8028C85.2012 99.6479 82.94 100 80.3962 100C77.923 100 75.5912 99.5775 73.6127 98.8028C71.6341 97.9577 69.8676 96.7606 68.313 95.1409C66.7585 93.5211 65.6279 91.6197 64.8506 89.507C64.0733 87.3944 63.72 84.9296 63.72 82.3239C63.72 79.7183 64.0733 77.2535 64.8506 75.1408C65.6279 73.0282 66.7585 71.0563 68.313 69.4366C69.7969 67.8169 71.5635 66.6197 73.6127 65.7747C75.5912 65 77.923 64.5775 80.3962 64.5775C82.8694 64.5775 85.1305 65 87.1797 65.7747C89.1583 66.5493 90.9955 67.8169 92.4794 69.4366C93.9633 71.0563 95.1645 73.0282 95.8711 75.1408C96.5778 77.2535 97.0017 79.6479 97.0017 82.3239ZM69.0903 82.3239C69.0903 86.338 70.1502 89.507 72.1994 91.831C74.2486 94.1549 76.9338 95.3521 80.3962 95.3521C83.788 95.3521 86.5438 94.1549 88.593 91.831C90.6422 89.507 91.6314 86.338 91.6314 82.3239C91.6314 78.3099 90.6422 75.0704 88.593 72.7465C86.5438 70.4225 83.788 69.2254 80.3962 69.2254C77.0044 69.2254 74.2486 70.4225 72.1994 72.7465C70.1502 75.1408 69.0903 78.3099 69.0903 82.3239ZM113.395 81.6197L125.266 65.3521H119.472L110.498 77.6761L101.524 65.3521H95.7298L107.601 81.6197L94.7405 99.2958H100.535L110.498 85.5634L120.532 99.2958H126.326L113.395 81.6197ZM63.2961 22.6761C71.8461 29.1549 86.3318 45.0704 81.9508 49.5775C76.9338 53.9437 70.4329 56.5493 63.2961 56.5493C56.1592 56.5493 49.5877 53.9437 44.6413 49.5775C40.1897 45.0704 54.746 29.1549 63.2254 22.7465C63.2254 22.6761 63.2961 22.6761 63.2961 22.6761ZM78.0644 4.15493C73.754 1.5493 69.0197 0 63.2961 0C57.5724 0 52.8381 1.5493 48.5277 4.15493C48.4571 4.15493 48.4571 4.22535 48.4571 4.29577C48.4571 4.3662 48.5277 4.3662 48.5984 4.3662C54.11 3.16901 62.4481 7.88732 63.2254 8.38028H63.3667C64.144 7.88732 72.4821 3.16901 77.9937 4.3662C78.0644 4.3662 78.135 4.3662 78.135 4.29577C78.135 4.22535 78.135 4.15493 78.0644 4.15493ZM43.4401 8.09859C43.3694 8.09859 43.3694 8.16901 43.2988 8.16901C38.1405 13.3099 34.9607 20.4225 34.9607 28.2394C34.9607 34.6479 37.1512 40.6338 40.7549 45.3521C40.7549 45.4225 40.8256 45.4225 40.8963 45.4225C40.9669 45.4225 40.9669 45.3521 40.8963 45.2817C38.7058 38.5916 49.7997 22.4648 55.5233 15.7042L55.5939 15.6338C55.5939 15.5634 55.5939 15.5634 55.5233 15.5634C46.8319 6.97183 43.9347 7.88732 43.4401 8.09859ZM71.0688 15.493L70.9982 15.5634C70.9982 15.5634 70.9982 15.6338 71.0688 15.6338C76.7924 22.3944 87.8157 38.5211 85.6958 45.2113V45.3521C85.7665 45.3521 85.8372 45.3521 85.8372 45.2817C89.4409 40.5634 91.6314 34.5775 91.6314 28.169C91.6314 20.3521 88.4516 13.2394 83.2227 8.09859C83.152 8.02817 83.152 8.02817 83.0813 8.02817C82.6574 7.88732 79.7602 6.97183 71.0688 15.493Z" fill="white"/>
</svg>
