<svg width="95" height="100" viewBox="0 0 95 100" fill="none" xmlns="http://www.w3.org/2000/svg">
<path d="M29.5397 0.209167C23.252 1.33337 18.1931 5.98706 16.5983 12.1048C16.0231 14.314 15.9839 15.6082 16.0492 32.7457C16.0885 48.4846 16.1015 48.8506 16.363 50.0663C17.814 56.6155 22.4677 61.2822 29.0822 62.8247C29.9449 63.0208 31.043 63.06 38.115 63.0993C45.4354 63.1515 46.1936 63.1385 46.3897 62.9424C46.5858 62.7463 46.5988 60.2234 46.5988 31.6215C46.5988 10.4185 46.5596 0.431393 46.4681 0.248383C46.3374 0.0130844 46.1152 1.52588e-05 38.4549 0.0130844C32.2326 0.0261574 30.3632 0.0653725 29.5397 0.209167ZM41.37 31.5823V58.0665L36.0496 58.0011C31.1476 57.9488 30.6247 57.9227 29.6443 57.6743C25.435 56.5893 22.3108 53.3474 21.435 49.1251C21.1474 47.8048 21.1474 15.2814 21.4219 13.9872C22.2062 10.3139 24.7553 7.26812 28.1933 5.89555C29.9188 5.20273 30.7162 5.12429 36.3111 5.11122L41.37 5.09815V31.5823Z" fill="white"/>
<path d="M30.664 13.0852C29.8405 13.242 28.5855 13.8695 27.9189 14.4578C26.5463 15.6473 25.8665 17.3336 25.9711 19.3206C26.0234 20.3533 26.0888 20.6278 26.5071 21.4644C27.1215 22.7324 28.0496 23.6605 29.3176 24.288C30.1934 24.7194 30.4156 24.7717 31.5529 24.8109C32.5856 24.8501 32.9516 24.8109 33.6445 24.5756C36.4811 23.6213 38.1936 20.8631 37.7099 18.0395C37.1478 14.68 33.9582 12.4316 30.664 13.0852Z" fill="white"/>
<path d="M52.9652 0.0914726C52.9129 0.130688 52.8737 14.3009 52.8737 31.5823C52.8737 60.0926 52.8868 62.9816 53.0829 63.06C53.4358 63.1907 63.5798 63.1384 64.8347 63.0077C70.142 62.4064 74.8218 59.1776 77.3709 54.3801C77.6977 53.7657 78.1291 52.733 78.3513 52.0925C79.1749 49.6349 79.1487 50.2885 79.1487 31.5038C79.1487 16.5101 79.1226 14.2747 78.9396 13.3205C77.6454 6.5099 72.4558 1.37254 65.6321 0.196049C64.7171 0.0391846 63.3053 -3.05176e-05 58.7562 -3.05176e-05C55.6189 -3.05176e-05 53.0044 0.0391846 52.9652 0.0914726ZM66.9263 28.5626C68.9655 29.0986 70.6388 30.6541 71.3185 32.6411C71.7499 33.8699 71.7368 35.6738 71.3054 36.7981C70.508 38.8635 68.9394 40.3145 66.9263 40.8504C63.6582 41.7001 60.181 39.7262 59.2268 36.4843C58.9392 35.4908 58.9523 33.8176 59.2791 32.798C60.2595 29.5953 63.6582 27.7129 66.9263 28.5626Z" fill="white"/>
<path d="M88.7305 72.6027C86.7043 73.2693 85.5017 75.2171 85.8415 77.3348C86.0507 78.6943 86.835 79.7662 88.0376 80.3806C89.6717 81.1911 91.4103 80.9819 92.7175 79.8054C93.6979 78.9165 94.1162 77.9884 94.1162 76.6681C94.1162 75.4262 93.7502 74.4981 92.9266 73.6746C91.8939 72.6419 90.0377 72.1713 88.7305 72.6027ZM91.0442 74.5112C91.8286 74.9164 92.26 75.57 92.3253 76.4589C92.4037 77.6224 91.907 78.459 90.8743 78.8904C89.1226 79.6224 87.1357 77.9361 87.6324 76.1191C87.8416 75.3086 88.1945 74.8511 88.8481 74.5243C89.554 74.1844 90.3776 74.1713 91.0442 74.5112Z" fill="white"/>
<path d="M1.10773 76.6681V80.6682L1.93127 80.629L2.74175 80.5897L2.80711 78.0668L2.87247 75.5439L4.76793 78.093L6.66339 80.6551L7.44772 80.629L8.23205 80.5897V76.6681V72.7465L7.42157 72.7072L6.59803 72.668V75.2432V77.8315L4.67642 75.2563L2.74175 72.6811H1.93127H1.10773V76.6681Z" fill="white"/>
<path d="M14.18 76.6681V80.6551H15.0297H15.8794V76.6681V72.6811H15.0297H14.18V76.6681Z" fill="white"/>
<path d="M21.8273 72.851C21.788 72.9425 21.775 74.7204 21.788 76.7988L21.8273 80.5897L22.6508 80.629L23.4613 80.6682V78.0276V75.374L25.4221 78.0145L27.3829 80.6551H28.1673H28.9516V76.6681V72.6811H28.1019H27.2522L27.2261 75.191L27.1868 77.7008L25.3045 75.191L23.4351 72.6811H22.6639C22.1541 72.6811 21.8665 72.7334 21.8273 72.851Z" fill="white"/>
<path d="M34.5334 72.7726C34.4811 72.8118 34.4419 73.2039 34.4419 73.6222V74.3804H35.7491H37.0563V77.5177V80.6551H37.906H38.7557V77.5177V74.3804H39.9976H41.2394V73.5307V72.6811H37.9322C36.1021 72.6811 34.5726 72.7203 34.5334 72.7726Z" fill="white"/>
<path d="M46.9913 76.6681V80.6551H50.0633H53.1352V79.8707V79.0864H50.8476H48.56V78.1714V77.2563H50.6515H52.7431V76.5373V75.8184H50.6515H48.56V75.034V74.2497L50.8215 74.2236L53.0699 74.1843L53.1091 73.4262L53.1483 72.6811H50.0633H46.9913V76.6681Z" fill="white"/>
<path d="M59.6058 72.851C59.5666 72.9425 59.5535 74.7204 59.5666 76.7988L59.6058 80.5897L60.4294 80.629L61.2398 80.6682V78.0145V75.374L63.2007 78.0145L65.1615 80.6551H65.9458H66.7301V76.6681V72.6811H65.8805H65.0308L65.0046 75.191L64.9654 77.7008L63.083 75.191L61.2137 72.6811H60.4424C59.9326 72.6811 59.645 72.7334 59.6058 72.851Z" fill="white"/>
<path d="M73.3971 76.655V80.6551H75.1357C77.1488 80.6551 78.1031 80.459 78.9658 79.8577C81.5149 78.106 81.1227 74.3543 78.2599 73.034C77.724 72.7856 77.358 72.7464 75.5279 72.7072L73.3971 72.6549V76.655ZM77.6717 74.6288C78.7697 75.1386 79.2403 76.5373 78.6913 77.7008C78.273 78.5635 77.4233 78.9557 75.9331 78.9557H74.9658V76.6681V74.3804H76.0507C76.822 74.3804 77.2795 74.4589 77.6717 74.6288Z" fill="white"/>
<path d="M69.4493 84.1977C67.6323 84.433 66.0113 85.2826 64.678 86.7075C61.7629 89.8448 61.8544 94.6162 64.9002 97.6489C66.0244 98.7862 67.044 99.3744 68.5081 99.7404C70.9134 100.355 73.3448 99.8712 75.3318 98.3679C76.103 97.7927 77.1096 96.6685 77.0311 96.4724C77.005 96.4201 76.469 95.9364 75.8285 95.3743L74.6781 94.3678L74.3252 94.8253C72.6389 97.0345 69.2271 97.2698 67.2532 95.2959C66.9656 95.0083 66.5734 94.4724 66.3773 94.0933C66.0505 93.4658 66.0113 93.2697 66.0113 92.0932C66.0113 90.969 66.0505 90.6945 66.3381 90.1324C67.3055 88.1324 69.6977 87.0474 71.7761 87.6487C72.7435 87.9232 73.6585 88.4984 74.2337 89.1912L74.6781 89.7272L75.2533 89.2566C75.5671 89.0082 76.1161 88.5245 76.469 88.2108L77.1226 87.6226L76.6128 86.9951C74.9134 84.9297 72.1683 83.8578 69.4493 84.1977Z" fill="white"/>
<path d="M4.79433 84.7075C1.68316 85.531 0.0752869 87.6095 0.76811 89.9625C1.26485 91.7011 2.91194 92.5508 7.29111 93.3351C10.2323 93.858 11.0951 94.2894 11.0951 95.2175C11.0951 95.858 10.716 96.3286 9.89247 96.7077C9.18657 97.0345 9.02971 97.0607 7.25189 97.0607C5.14728 97.0607 4.32373 96.8907 2.76815 96.1848C2.28448 95.9626 1.86617 95.8057 1.84003 95.8319C1.68316 96.028 0.441307 98.3417 0.480523 98.3679C0.611245 98.5117 2.70279 99.2699 3.56555 99.5052C5.00348 99.8842 8.07544 99.9758 9.6441 99.6882C12.5723 99.1391 14.0233 97.7927 14.154 95.5312C14.2586 93.6619 13.7357 92.6946 12.1278 91.8579C10.9775 91.2566 9.98397 90.969 7.44798 90.4592C5.23878 90.0278 4.61132 89.8187 4.1538 89.3873C3.74856 89.0082 3.74856 88.3285 4.16687 87.9102C5.10806 86.969 8.48067 86.9298 11.0951 87.8448C11.5265 87.9886 11.9186 88.067 11.9709 88.0147C12.0624 87.9102 13.0036 85.701 13.0036 85.5702C13.0036 85.4526 11.0036 84.8644 9.87939 84.6552C8.36303 84.3676 6.01004 84.3938 4.79433 84.7075Z" fill="white"/>
<path d="M15.9321 84.799C15.9713 84.9297 16.8864 88.1846 17.9714 92.0279C19.0563 95.8711 19.9714 99.126 20.0106 99.2437C20.076 99.4528 20.2851 99.479 21.893 99.479H23.71L23.8538 98.9822C25.148 94.3024 26.4552 89.9102 26.5205 90.067C26.5598 90.1716 27.1741 92.3154 27.88 94.8384L29.1611 99.4136L30.9912 99.4528L32.8213 99.4921L34.8998 92.1978C36.0371 88.1846 36.9913 84.8251 37.0305 84.7336C37.0698 84.616 36.7037 84.5767 35.4357 84.5767H33.8017L33.6187 85.1911C33.5141 85.5441 32.8867 87.8971 32.22 90.42C31.5402 92.956 30.9651 95.0344 30.9128 95.0344C30.8736 95.0344 30.2592 93.0475 29.5533 90.6161C28.8474 88.1977 28.1546 85.8447 28.0108 85.3872L27.7624 84.5637L26.429 84.6029L25.0957 84.6421L23.5662 89.871C22.7296 92.7468 22.0368 95.126 22.0237 95.1652C22.0106 95.2044 21.4224 93.0867 20.7296 90.4592C20.0237 87.8317 19.3701 85.4395 19.2916 85.1258L19.1348 84.5767H17.5008C15.9975 84.5767 15.8667 84.5898 15.9321 84.799Z" fill="white"/>
<path d="M40.7166 92.0279V99.479H42.416H44.1154L44.0892 92.054L44.05 84.6421L42.3898 84.6029L40.7166 84.5637V92.0279Z" fill="white"/>
<path d="M47.6448 86.2108V87.8448H49.9978H52.3508V93.6619V99.479H53.9848H55.6188V93.6619V87.8448L57.9457 87.8186L60.2595 87.7794V86.2108V84.6421L53.9587 84.6029L47.6448 84.5767V86.2108Z" fill="white"/>
<path d="M80.4559 92.0279V99.479H82.0246H83.5932V96.5378V93.5965H87.0574H90.5215V96.5378V99.479H92.0901H93.6588L93.6327 92.054L93.5934 84.6421L92.064 84.6029L90.5215 84.5637V87.518V90.4592H87.0574H83.5932V87.518V84.5767H82.0246H80.4559V92.0279Z" fill="white"/>
</svg>
