<svg width="48" height="56" viewBox="0 0 48 56" fill="none" xmlns="http://www.w3.org/2000/svg">
<path fill-rule="evenodd" clip-rule="evenodd" d="M43.4703 0.259277H4.34193C1.17044 0.259277 0 1.42972 0 4.60269V42.8895C0 43.2485 0.0144798 43.5821 0.0461986 43.8911C0.0522161 43.9488 0.0578265 44.0064 0.0634288 44.0639L0.063433 44.0639C0.125051 44.6962 0.185692 45.3185 0.776126 46.0189C0.839071 46.0938 1.4967 46.5831 1.4967 46.5831C1.56014 46.6142 1.61997 46.6439 1.67775 46.6725L1.67788 46.6726L1.67796 46.6726L1.6781 46.6727C1.94232 46.8036 2.16366 46.9132 2.49091 47.0449L21.7582 55.1173C22.7585 55.5758 23.1767 55.7545 23.9032 55.7401V55.7402H23.906H23.9089V55.7401C24.6354 55.7545 25.0536 55.5758 26.054 55.1173L45.3212 47.0449C45.6482 46.9134 45.8694 46.8038 46.1333 46.6731L46.2317 46.6244L46.3155 46.5831C46.3155 46.5831 46.9731 46.0938 47.036 46.0189C47.6264 45.3185 47.687 44.6962 47.7487 44.0639L47.7487 44.0638L47.7543 44.0067L47.7589 43.9601L47.7659 43.8911C47.7976 43.5821 47.8122 43.2485 47.8122 42.8895V4.60269C47.8122 1.42972 46.6416 0.259277 43.4703 0.259277ZM40.8494 38.7513L40.8405 38.8397L40.8317 38.9367L40.814 39.0251L40.7876 39.1133L40.7705 39.1928L40.7439 39.2812L40.7086 39.3607L40.6732 39.4314L40.6385 39.5108L40.5943 39.5814L40.5502 39.6522L40.4977 39.7228L40.4535 39.7934L40.4011 39.8552L40.3392 39.917L40.2867 39.97L40.2162 40.0319L40.1548 40.0849L40.0842 40.1379L40.014 40.1814L39.9439 40.2344L39.8644 40.2786L39.7854 40.3139L39.7065 40.3581L39.6181 40.3934L39.5304 40.4288L39.4426 40.4552L39.3548 40.4818L39.2753 40.5082L39.1876 40.5259L39.1086 40.5435L39.0297 40.5612L38.9413 40.5789L38.8534 40.5877L38.7745 40.5965L38.6862 40.6054L38.5896 40.6143L38.5018 40.623H38.414H38.3174H38.2202H38.1325L38.0446 40.6143H37.9481L37.8602 40.6054L37.7719 40.5965L37.6753 40.5877L37.5875 40.57L37.4998 40.5612L37.4114 40.5435L37.3235 40.5259L37.2358 40.5082L37.148 40.4905L37.0597 40.4641L36.9807 40.4464L36.893 40.4199L36.8051 40.3934L36.7257 40.3581L36.6379 40.3316L36.5589 40.3052L36.4711 40.2698L36.3917 40.2344L36.3127 40.1991L36.2337 40.1555L36.1543 40.1202L36.0753 40.0759L36.0051 40.0319L35.9257 39.9877L35.8555 39.9435L35.7849 39.8994L35.7148 39.8464L35.6446 39.7934L35.574 39.7404L35.5038 39.6874L35.442 39.6344L35.3719 39.5727L35.4249 39.502L35.4861 39.4402L35.5391 39.3694L35.6005 39.2988L35.6535 39.2371L35.7059 39.1664L35.7677 39.0957L35.8202 39.0339L35.882 38.9633L35.9345 38.9015L35.9963 38.8308L36.0488 38.7601L36.1018 38.6983L36.1631 38.6277L36.216 38.557L36.2773 38.4952L36.3303 38.4246L36.4005 38.4776L36.4795 38.5306L36.5501 38.5836L36.6291 38.6366L36.6997 38.6807L36.7787 38.7336L36.8488 38.7778L36.9283 38.8131L36.9984 38.8573L37.0774 38.8927L37.1569 38.9279L37.2358 38.9633L37.3149 38.9898L37.3943 39.0251L37.482 39.0516L37.5699 39.0781L37.6488 39.1046L37.7372 39.1223L37.8249 39.1399L37.9127 39.1576L38.0093 39.1664L38.0976 39.1841H38.1855L38.282 39.1928H38.3699H38.4753L38.5719 39.1841L38.6603 39.1664L38.7392 39.1487L38.8182 39.1311L38.8888 39.1046L38.9502 39.0693L39.0208 39.0163L39.0732 38.9544L39.1086 38.8837L39.1352 38.8043L39.1438 38.716V38.6983L39.1352 38.5923L39.0998 38.504L39.0556 38.4422L38.9943 38.3892L38.9236 38.3362L38.8534 38.301L38.7745 38.2656L38.6862 38.2302L38.5808 38.1862L38.5194 38.1685L38.4494 38.1508L38.3699 38.1242L38.2909 38.1066L38.2031 38.0801L38.1147 38.0625L38.0182 38.036L37.9303 38.0183L37.8337 37.9918L37.7459 37.9742L37.6576 37.9477L37.5699 37.93L37.482 37.9035L37.4025 37.8771L37.3149 37.8594L37.2358 37.8329L37.1569 37.8064L37.0774 37.7799L36.9807 37.7445L36.893 37.7091L36.8051 37.6739L36.7169 37.6385L36.6379 37.5944L36.5501 37.5502L36.4795 37.5061L36.4005 37.462L36.3303 37.409L36.2597 37.3649L36.1984 37.3118L36.1367 37.25L36.0753 37.1881L36.0223 37.1263L35.9699 37.0645L35.9257 37.0028L35.882 36.932L35.8379 36.8526L35.8025 36.7914L35.776 36.7206L35.7501 36.6411L35.7236 36.5705L35.7059 36.4822L35.6883 36.4027L35.6794 36.3144L35.6706 36.226L35.6618 36.129V36.0318V36.0141V35.9258L35.6706 35.8375L35.6794 35.758L35.6883 35.6697L35.7059 35.5903L35.7236 35.5108L35.7501 35.4312L35.7677 35.3518L35.8025 35.2723L35.8379 35.1928L35.8731 35.1134L35.9169 35.0338L35.9609 34.9544L36.0134 34.8837L36.0665 34.8131L36.1278 34.7424L36.1896 34.6807L36.2509 34.61L36.3215 34.5481L36.3828 34.504L36.4534 34.451L36.5237 34.398L36.5937 34.3538L36.6732 34.3097L36.7522 34.2743L36.8311 34.2302L36.9106 34.195L36.9984 34.1684L37.0861 34.1331L37.1656 34.1066L37.2358 34.0889L37.3149 34.0712L37.3943 34.0536L37.482 34.036L37.561 34.0182L37.6488 34.0095L37.7372 34.0006L37.8249 33.9917L37.9127 33.983H38.0005H38.0976H38.1943H38.2909L38.3875 33.9917L38.4841 34.0006H38.5719L38.669 34.0095L38.7568 34.0271L38.8534 34.036L38.9413 34.0536L39.0208 34.0712L39.1086 34.0889L39.1963 34.1066L39.2753 34.1242L39.3636 34.1507L39.4426 34.1772L39.5216 34.195L39.6099 34.2302L39.6889 34.2567L39.7678 34.292L39.8468 34.3273L39.935 34.3627L40.014 34.4068L40.0842 34.4422L40.1637 34.4863L40.2427 34.5305L40.3128 34.5747L40.3922 34.6277L40.4624 34.6717L40.5331 34.7248L40.6032 34.7778L40.6732 34.8307L40.6208 34.9014L40.5767 34.9721L40.5242 35.0427L40.4712 35.1134L40.4188 35.1928L40.3746 35.2634L40.3216 35.3342L40.2691 35.4048L40.225 35.4754L40.1724 35.5462L40.1195 35.6168L40.0753 35.6874L40.0229 35.7669L39.9698 35.8375L39.9174 35.9082L39.8733 35.9788L39.8208 36.0494L39.7501 35.9965L39.6712 35.9523L39.601 35.9082L39.5304 35.8552L39.4515 35.8199L39.3807 35.7757L39.3018 35.7403L39.2317 35.705L39.1522 35.6697L39.0821 35.6344L39.0032 35.6079L38.9325 35.5726L38.8358 35.5462L38.748 35.5196L38.6603 35.4932L38.5719 35.4754L38.4841 35.4578L38.3964 35.4401L38.3086 35.4312L38.2202 35.4224L38.1413 35.4136H38.0535H37.9481L37.8514 35.4312L37.7631 35.4489L37.6842 35.4666L37.614 35.5019L37.5522 35.5372L37.4732 35.6079L37.4202 35.6874L37.3855 35.7669L37.3765 35.8552V35.8729L37.3855 35.9877L37.4291 36.0848L37.4644 36.1378L37.5257 36.1996L37.6052 36.2438L37.6753 36.2879L37.7631 36.3233L37.8602 36.3586L37.9657 36.3939L38.0358 36.4115L38.106 36.438L38.1855 36.4557L38.2644 36.4822L38.3521 36.4999L38.4494 36.5264L38.546 36.5528L38.6426 36.5794L38.7392 36.597L38.8269 36.6235L38.9236 36.65L39.0119 36.6676L39.0998 36.6941L39.1876 36.7206L39.2665 36.7471L39.3548 36.7736L39.4338 36.8001L39.5127 36.8266L39.6099 36.8614L39.6976 36.9056L39.7854 36.9409L39.8733 36.985L39.9528 37.0293L40.0318 37.0734L40.1018 37.1175L40.1724 37.1705L40.2427 37.2146L40.3128 37.2765L40.3834 37.3383L40.4447 37.409L40.5065 37.4708L40.559 37.5415L40.612 37.6209L40.6556 37.6915L40.6998 37.7711L40.7351 37.8417L40.7616 37.9211L40.7876 38.0006L40.8052 38.0801L40.8229 38.1685L40.8405 38.2568L40.8494 38.3451L40.8582 38.4422V38.5393V38.557V38.6542L40.8494 38.7513ZM34.6835 40.5171H34.5952H34.5075H34.4197H34.3319H34.2436H34.1557H34.068H33.9802H33.883H33.7953H33.7075H33.6197H33.5313H33.4436H33.3557H33.268H33.1796H33.0918H33.0041H32.9163H32.8284H32.7402H32.6524H32.5646H32.4768H32.3884H32.3006H32.2129H32.1162H32.028H31.9401H31.8523H31.7646H31.6763H31.5884H31.5007H31.4128H31.3246H31.2368H31.149H31.0611H30.9728H30.8851H30.7973H30.7095H30.6212H30.5334H30.4367H30.349H30.2612H30.1728H30.0851H29.9972H29.9095H29.8213H29.7334H29.6456V40.4288V40.3404V40.2522V40.1643V40.0759V39.9877V39.8994V39.8111V39.7228V39.6344V39.5462V39.4578V39.3694V39.2812V39.1928V39.1046V39.0163V38.9279V38.8485V38.7601V38.6718V38.5836V38.4952V38.4069V38.3186V38.2302V38.1419V38.0536V37.9654V37.8771V37.7887V37.7004V37.6121V37.5238V37.4354V37.3471V37.2588V37.1705V37.0822V36.9939V36.9056V36.8178V36.7295V36.6411V36.5528V36.4645V36.3763V36.2879V36.1996V36.1113V36.0229V35.9347V35.8463V35.758V35.6785V35.5903V35.5019V35.4136V35.3253V35.2369V35.1487V35.0603V34.9721V34.8837V34.7954V34.7071V34.6187V34.5305V34.4422V34.3538V34.2656V34.1772V34.0889H29.7334H29.8213H29.9095H29.9972H30.0851H30.1728H30.2612H30.349H30.4367H30.5246H30.6128H30.7007H30.7884H30.8763H30.9556H31.0435H31.1313H31.2192H31.3074H31.3952H31.483H31.5708H31.6591H31.7468H31.8346H31.9225H32.0108H32.0986H32.1864H32.2741H32.3625H32.4504H32.538H32.6258H32.7137H32.802H32.8898H32.9776H33.0653H33.1537H33.2415H33.3292H33.417H33.4966H33.5844H33.6721H33.76H33.8483H33.936H34.0238H34.1116H34.1999H34.2877H34.3755H34.4633H34.5516H34.6395H34.7272V34.1772V34.2567V34.345V34.4333V34.5216V34.6011V34.6894V34.7778V34.8572V34.9456V35.0338V35.1134V35.2017V35.2899V35.3783V35.4578V35.5462H34.6395H34.5516H34.4633H34.3755H34.2877H34.1999H34.1204H34.0327H33.9449H33.857H33.7688H33.681H33.5931H33.5054H33.417H33.3292H33.2415H33.1537H33.0653H32.9864H32.8986H32.8108H32.7224H32.6348H32.5469H32.4591H32.3708H32.283H32.1952H32.1075H32.0191H31.9312H31.8523H31.7646H31.6763H31.5884H31.5007H31.4128H31.3246V35.6344V35.7227V35.8109V35.8993V35.9877V36.0671V36.1554V36.2438V36.332V36.4204V36.5086V36.597H31.4128H31.5007H31.5884H31.6763H31.7646H31.8523H31.9401H32.028H32.1075H32.1952H32.283H32.3708H32.4591H32.5469H32.6348H32.7224H32.8108H32.8986H32.9864H33.0742H33.1625H33.2502H33.3381H33.426H33.5142H33.602H33.681H33.7688H33.857H33.9449H34.0327H34.1204H34.2087H34.2966H34.3843V36.6853V36.7648V36.8526V36.9409V37.0204V37.1086V37.197V37.2765V37.3649V37.4531V37.5415V37.6209V37.7091V37.7975V37.8771V37.9654H34.2966H34.2087H34.1204H34.0327H33.9449H33.857H33.7688H33.681H33.602H33.5142H33.426H33.3381H33.2502H33.1625H33.0742H32.9864H32.8986H32.8108H32.7224H32.6348H32.5469H32.4591H32.3708H32.283H32.1952H32.1075H32.028H31.9401H31.8523H31.7646H31.6763H31.5884H31.5007H31.4128H31.3246V38.0536V38.1508V38.2391V38.3275V38.4246V38.5129V38.6012V38.6983V38.7866V38.875V38.9721V39.0603H31.4128H31.5007H31.5884H31.6763H31.7646H31.8523H31.9401H32.028H32.1162H32.2129H32.3006H32.3884H32.4768H32.5646H32.6524H32.7402H32.8284H32.9163H33.0041H33.0918H33.1796H33.268H33.3557H33.4436H33.5313H33.6197H33.7075H33.7953H33.883H33.9802H34.068H34.1557H34.2436H34.3319H34.4197H34.5075H34.5952H34.6835H34.7714V39.1487V39.2282V39.3166V39.4048V39.4932V39.5727V39.6609V39.7492V39.8288V39.917V40.0053V40.0849V40.1727V40.2609V40.3492V40.4288V40.5171H34.6835ZM28.2595 40.5171H28.1718H28.0839H27.9869H27.8991H27.8113H27.7235H27.6351H27.5474H27.4507H27.3629H27.2751H27.1868H27.0991H27.0113H26.9146H26.8263H26.7385H26.6507V40.4288V40.3404V40.2522V40.1638V40.0749V39.9867V39.8983V39.81V39.7217V39.6334V39.5451V39.4563V39.368V39.2796V39.1914V39.103V39.0141V38.9258V38.8375V38.7493V38.6609V38.5726V38.4838V38.3955V38.3072V38.2188V38.1305V38.0422V37.9533V37.865V37.7767V37.6884V37.6002V37.5118V37.423V37.3347V37.2464V37.1581V37.0697V36.9809V36.8926V36.8043V36.7159L26.6066 36.7865L26.5541 36.8666L26.5099 36.9372L26.4575 37.008L26.4134 37.0874L26.3603 37.1581L26.3167 37.2287L26.2725 37.3087L26.2201 37.3793L26.1759 37.45L26.123 37.5207L26.0793 37.6007L26.0263 37.6713L25.9827 37.7419L25.9385 37.8214L25.8855 37.8926L25.8418 37.9633L25.7888 38.0427L25.7453 38.1134L25.6923 38.184L25.6487 38.264L25.6044 38.3347L25.5515 38.4054L25.5079 38.4849L25.4549 38.556L25.4113 38.6266L25.3583 38.6973L25.314 38.7767L25.2704 38.8479L25.2175 38.9186L25.1739 38.9981L25.1209 39.0687L25.0767 39.1393L25.0242 39.2194L24.9801 39.2901H24.9452L24.8923 39.2106L24.8481 39.1393L24.7956 39.0598L24.7515 38.9892L24.699 38.9098L24.6548 38.8386L24.6024 38.7591L24.5582 38.6884L24.5052 38.609L24.4616 38.5384L24.4086 38.4583L24.365 38.3876L24.312 38.3082L24.2678 38.2375L24.2154 38.1575L24.1712 38.0869L24.1188 38.0074L24.0658 37.9368L24.0216 37.8568L23.9691 37.7862L23.925 37.7067L23.8725 37.636L23.8284 37.556L23.7759 37.4853L23.7317 37.4058L23.6787 37.3352L23.6351 37.2557L23.5821 37.1845L23.5385 37.1051L23.4855 37.0344L23.4413 36.9549L23.3889 36.8843L23.3446 36.8043L23.2922 36.7336V36.8219V36.9103V36.9986V37.0874V37.1757V37.264V37.3524V37.4407V37.5295V37.6178V37.6973V37.7856V37.8739V37.9622V38.0511V38.1394V38.2277V38.3159V38.4043V38.4927V38.5814V38.6698V38.7581V38.8464V38.9347V39.023V39.1119V39.2001V39.2885V39.3767V39.4651V39.5539V39.6334V39.7217V39.81V39.8983V39.9867V40.0749V40.1638V40.2522V40.3404V40.4288V40.5171H23.2044H23.1162H23.0283H22.9405H22.8528H22.7645H22.6766H22.5889H22.501H22.4127H22.325H22.2371H22.1493H22.0611H21.9733H21.8854H21.7976H21.7093H21.6215V40.4288V40.3404V40.2522V40.1643V40.0759V39.9877V39.8994V39.8111V39.7228V39.6344V39.5462V39.4578V39.3694V39.2812V39.1928V39.1046V39.0163V38.9279V38.8485V38.7601V38.6718V38.5836V38.4952V38.4069V38.3186V38.2302V38.1419V38.0536V37.9654V37.8771V37.7887V37.7004V37.6121V37.5238V37.4354V37.3471V37.2588V37.1705V37.0822V36.9939V36.9056V36.8178V36.7295V36.6411V36.5528V36.4645V36.3763V36.2879V36.1996V36.1113V36.0229V35.9347V35.8463V35.758V35.6785V35.5903V35.5019V35.4136V35.3253V35.2369V35.1487V35.0603V34.9721V34.8837V34.7954V34.7071V34.6187V34.5305V34.4422V34.3538V34.2656V34.1772V34.0889H21.7093H21.7976H21.8767H21.9643H22.0522H22.1405H22.2195H22.3072H22.3956H22.4834H22.5624H22.6501H22.7385H22.8263H22.9052H22.9929H23.0813H23.1692H23.2481H23.3358H23.4242L23.4678 34.1596L23.512 34.239L23.5644 34.3091L23.6086 34.3886L23.6527 34.4592L23.6964 34.5388L23.7405 34.6089L23.7931 34.6885L23.8371 34.7591L23.8814 34.8297L23.925 34.9086L23.9691 34.9793L24.0216 35.0587L24.0658 35.1295L24.1099 35.2084L24.1535 35.279L24.2065 35.3496L24.2508 35.4287L24.2943 35.4993L24.3384 35.5788L24.3822 35.6495L24.4352 35.7284L24.4793 35.7991L24.5228 35.8785L24.5671 35.9486L24.6107 36.0193L24.6637 36.0988L24.7078 36.1695L24.7515 36.249L24.7956 36.3191L24.8392 36.3986L24.8923 36.4692L24.9365 36.5481L24.9801 36.6189L25.0242 36.5481L25.0684 36.4692L25.1209 36.3986L25.1649 36.3191L25.2086 36.249L25.2528 36.1695L25.3053 36.0988L25.3494 36.0193L25.3936 35.9486L25.4372 35.8785L25.4902 35.7991L25.5338 35.7284L25.578 35.6495L25.6221 35.5788L25.6746 35.4993L25.7187 35.4287L25.7629 35.3496L25.8065 35.279L25.8508 35.2084L25.9032 35.1295L25.9473 35.0587L25.9915 34.9793L26.0352 34.9086L26.0881 34.8297L26.1318 34.7591L26.1759 34.6885L26.2201 34.6089L26.2725 34.5388L26.3167 34.4592L26.3603 34.3886L26.4045 34.3091L26.4575 34.239L26.5011 34.1596L26.5453 34.0889H26.633H26.7209H26.8003H26.8882H26.9759H27.0637H27.1432H27.2311H27.3187H27.4066H27.4861H27.5739H27.6616H27.7495H27.8289H27.9167H28.0045H28.0923H28.1718H28.2595H28.3473V34.1772V34.2656V34.3538V34.4422V34.5305V34.6187V34.7071V34.7954V34.8837V34.9721V35.0603V35.1487V35.2369V35.3253V35.4136V35.5019V35.5903V35.6785V35.758V35.8463V35.9347V36.0229V36.1113V36.1996V36.2879V36.3763V36.4645V36.5528V36.6411V36.7295V36.8178V36.9056V36.9939V37.0822V37.1705V37.2588V37.3471V37.4354V37.5238V37.6121V37.7004V37.7887V37.8771V37.9654V38.0536V38.1419V38.2302V38.3186V38.4069V38.4952V38.5836V38.6718V38.7601V38.8485V38.9279V39.0163V39.1046V39.1928V39.2812V39.3694V39.4578V39.5462V39.6344V39.7228V39.8111V39.8994V39.9877V40.0759V40.1643V40.2522V40.3404V40.4288V40.5171H28.2595ZM18.0584 37.8682L18.0319 37.7882L17.9971 37.6999L17.9618 37.6204L17.9353 37.5404L17.9005 37.4609L17.8652 37.3725L17.8386 37.2926L17.8033 37.2131L17.7686 37.1337L17.742 37.0537L17.7066 36.9653L17.6807 36.8858L17.6454 36.8058L17.61 36.7263L17.5836 36.6469L17.5487 36.5581L17.5135 36.4785L17.487 36.3991L17.4516 36.3191L17.4168 36.2308L17.3903 36.1508L17.355 36.0713L17.3202 36.1508L17.2938 36.2308L17.2584 36.3191L17.2231 36.3991L17.1971 36.4785L17.1618 36.5581L17.1264 36.6469L17.0917 36.7263L17.0651 36.8058L17.0298 36.8858L16.9944 36.9653L16.9684 37.0537L16.9332 37.1337L16.8978 37.2131L16.8714 37.2926L16.8365 37.3725L16.8012 37.4609L16.7659 37.5404L16.74 37.6204L16.7046 37.6999L16.6693 37.7882L16.6428 37.8682L16.608 37.9477H16.6958H16.7835H16.8714H16.9597H17.0474H17.1352H17.2231H17.3114H17.3903H17.4781H17.5665H17.6542H17.742H17.8299H17.9176H18.0059H18.0937L18.0584 37.8682ZM20.8195 40.5171H20.7313H20.6522H20.5645H20.4761H20.3884H20.3005H20.2216H20.1332H20.0455H19.9577H19.8698H19.7816H19.7026H19.6148H19.5269H19.4387H19.3509H19.2719H19.1841H19.0959L19.061 40.4375L19.0345 40.3581L18.9992 40.2786L18.9639 40.1903L18.9379 40.1113L18.9026 40.0319L18.8672 39.9524L18.8412 39.8729L18.806 39.7934L18.7706 39.7139L18.7442 39.6344L18.7093 39.5462L18.674 39.4667L18.6475 39.3872L18.6121 39.3077H18.5243H18.4366H18.3488H18.261H18.1815H18.0937H18.0059H17.9176H17.8299H17.742H17.6542H17.5665H17.4781H17.3903H17.3114H17.2231H17.1352H17.0474H16.9597H16.8714H16.7835H16.6958H16.608H16.5202H16.4406H16.353H16.2651H16.1767H16.089L16.0542 39.3872L16.0277 39.4667L15.9923 39.5462L15.9571 39.6344L15.9311 39.7139L15.8958 39.7934L15.8604 39.8729L15.8339 39.9524L15.7992 40.0319L15.7638 40.1113L15.7373 40.1903L15.7024 40.2786L15.6672 40.3581L15.6407 40.4375L15.6053 40.5171H15.5175H15.4298H15.342H15.2536H15.1659H15.0692H14.9815H14.8936H14.8053H14.7176H14.6298H14.5419H14.4536H14.3659H14.2781H14.1815H14.0932H14.0054H13.9175H13.8297L13.8645 40.4375L13.8999 40.3581L13.9351 40.2786L13.97 40.1903L13.9965 40.1113L14.0319 40.0319L14.0671 39.9524L14.1019 39.8729L14.1373 39.7934L14.1726 39.7051L14.2074 39.6256L14.2428 39.5462L14.2692 39.4667L14.3045 39.3872L14.3393 39.3077L14.3747 39.2194L14.4099 39.1399L14.4448 39.0603L14.4802 38.9809L14.5154 38.9015L14.5419 38.822L14.5767 38.7336L14.6121 38.6542L14.6474 38.5747L14.6822 38.4952L14.7176 38.4157L14.7529 38.3362L14.7877 38.2479L14.8142 38.1685L14.8496 38.089L14.8848 38.0095L14.9197 37.93L14.955 37.8505L14.9902 37.7622L15.0251 37.6827L15.0604 37.6032L15.0869 37.5238L15.1222 37.4444L15.157 37.3649L15.1924 37.2765L15.2277 37.197L15.2625 37.1175L15.2978 37.038L15.3331 36.9586L15.3596 36.879L15.3945 36.8001L15.4298 36.7118L15.465 36.6324L15.4999 36.5528L15.5352 36.4733L15.5705 36.3939L15.6053 36.3144L15.6318 36.226L15.6672 36.1466L15.7024 36.0671L15.7373 35.9877L15.7727 35.9082L15.8079 35.8287L15.8428 35.7403L15.8781 35.6609L15.9046 35.5814L15.9398 35.5019L15.9747 35.4224L16.01 35.3429L16.0453 35.2547L16.0801 35.1752L16.1155 35.0957L16.1508 35.0162L16.1767 34.9368L16.2121 34.8572L16.2475 34.7689L16.2828 34.6894L16.3176 34.61L16.353 34.5305L16.3882 34.451L16.423 34.3716L16.4496 34.2832L16.4849 34.2037L16.5202 34.1242L16.555 34.0447H16.6428H16.7223H16.81H16.8978H16.9862H17.0651H17.1528H17.2407H17.3291H17.4081H17.4957H17.5836H17.6719H17.7509H17.8386H17.9264H18.0148H18.0937H18.1815L18.2168 34.1242L18.2522 34.2037L18.287 34.2832L18.3223 34.3716L18.3488 34.451L18.3836 34.5305L18.4189 34.61L18.4542 34.6894L18.4896 34.7689L18.5243 34.8572L18.5597 34.9368L18.5951 35.0162L18.621 35.0957L18.6563 35.1752L18.6917 35.2547L18.7271 35.3429L18.7618 35.4224L18.7971 35.5019L18.8325 35.5814L18.8672 35.6609L18.8937 35.7403L18.929 35.8287L18.9639 35.9082L18.9992 35.9877L19.0345 36.0671L19.0699 36.1466L19.1046 36.226L19.1399 36.3144L19.1665 36.3939L19.2013 36.4733L19.2365 36.5528L19.2719 36.6324L19.3073 36.7118L19.342 36.8001L19.3774 36.879L19.4127 36.9586L19.4387 37.038L19.4739 37.1175L19.5093 37.197L19.5442 37.2765L19.5794 37.3649L19.6148 37.4444L19.6502 37.5238L19.6849 37.6032L19.7114 37.6827L19.7467 37.7622L19.7816 37.8505L19.8168 37.93L19.8522 38.0095L19.8875 38.089L19.9223 38.1685L19.9577 38.2479L19.9841 38.3362L20.019 38.4157L20.0542 38.4952L20.0896 38.5747L20.1244 38.6542L20.1597 38.7336L20.1951 38.822L20.2304 38.9015L20.2564 38.9809L20.2917 39.0603L20.3271 39.1399L20.3619 39.2194L20.3971 39.3077L20.4325 39.3872L20.4678 39.4667L20.5025 39.5462L20.5291 39.6256L20.5645 39.7051L20.5993 39.7934L20.6345 39.8729L20.6698 39.9524L20.7047 40.0319L20.7399 40.1113L20.7753 40.1903L20.8019 40.2786L20.8366 40.3581L20.8719 40.4375L20.9072 40.5171H20.8195ZM13.1171 39.6962L13.0464 39.7492L12.9851 39.7934L12.9144 39.8464L12.8443 39.8905L12.7742 39.9435L12.7035 39.9877L12.6334 40.0319L12.5539 40.0759L12.4749 40.1202L12.3959 40.1643L12.3165 40.1991L12.2375 40.2433L12.1497 40.2786L12.0708 40.3139L11.9825 40.3492L11.9036 40.3846L11.8245 40.411L11.7451 40.4375L11.6661 40.4641L11.5783 40.4905L11.4994 40.5171L11.411 40.5348L11.332 40.5524L11.2443 40.57L11.156 40.5877L11.0681 40.5965L10.9715 40.6054L10.8837 40.6143L10.7871 40.623L10.6987 40.6319L10.6022 40.6407H10.5056H10.4088H10.3123H10.2239L10.1362 40.6319L10.0395 40.623L9.95178 40.6143L9.86401 40.6054L9.77565 40.5965L9.68788 40.5789L9.60001 40.5612L9.52111 40.5435L9.43285 40.5259L9.35385 40.4994L9.26608 40.4818L9.18659 40.4552L9.10758 40.4199L9.02858 40.3934L8.94091 40.3581L8.86142 40.3228L8.78242 40.2875L8.70351 40.2522L8.62392 40.208L8.55388 40.1643L8.47488 40.1202L8.40425 40.0759L8.33412 40.0319L8.26349 39.9788L8.19335 39.9259L8.12312 39.8729L8.06135 39.8199L8.00008 39.7669L7.93822 39.7051L7.87695 39.6522L7.81509 39.5903L7.75382 39.5284L7.70082 39.4667L7.64832 39.396L7.59533 39.3342L7.5512 39.2636L7.49869 39.1928L7.45466 39.1223L7.41092 39.0516L7.36679 38.9721L7.32266 38.9015L7.28789 38.822L7.25252 38.7425L7.21726 38.663L7.18239 38.5836L7.15589 38.5129L7.12053 38.4334L7.10289 38.3539L7.07689 38.2745L7.05926 38.1862L7.03276 38.1066L7.01513 38.0183L7.00626 37.9389L6.98853 37.8505L6.97986 37.7711L6.9709 37.6827L6.96262 37.5944L6.95386 37.5061V37.409V37.3206V37.303V37.2146L6.96262 37.1175V37.0293L6.9709 36.9409L6.97986 36.8438L6.99749 36.756L7.00626 36.6676L7.02389 36.5881L7.05039 36.4999L7.06812 36.4115L7.09403 36.332L7.12053 36.2438L7.14703 36.1643L7.18239 36.0759L7.21726 35.9965L7.25252 35.917L7.28789 35.8375L7.32266 35.758L7.36679 35.6785L7.41092 35.6079L7.45466 35.5372L7.49869 35.4666L7.54292 35.3959L7.59533 35.3253L7.64832 35.2547L7.70082 35.184L7.75382 35.1221L7.81509 35.0603L7.86809 34.9985L7.92946 34.9368L7.99122 34.8748L8.05249 34.8219L8.12312 34.7601L8.18449 34.7071L8.25462 34.6541L8.32525 34.61L8.39539 34.557L8.46611 34.5128L8.53615 34.4687L8.61515 34.4245L8.69465 34.3803L8.77355 34.3362L8.85255 34.3008L8.93195 34.2656L9.01982 34.2213L9.08995 34.195L9.17772 34.1684L9.25731 34.1331L9.33622 34.1154L9.41512 34.0889L9.50338 34.0712L9.58238 34.0447L9.67015 34.0271L9.75802 34.0182L9.84628 34.0006L9.93414 33.9917L10.0218 33.983L10.1097 33.9741L10.198 33.9652H10.2947H10.3824H10.479H10.5756L10.6728 33.9741L10.7695 33.983H10.8572L10.945 33.9917L11.0416 34.0095L11.1211 34.0182L11.2089 34.036L11.2968 34.0536L11.3762 34.0712L11.4551 34.0889L11.5342 34.1066L11.6137 34.1331L11.6926 34.1507L11.7627 34.1772L11.8422 34.2037L11.9212 34.239L12.0001 34.2743L12.0796 34.3097L12.1586 34.3538L12.2375 34.3892L12.3082 34.4333L12.3871 34.4775L12.4573 34.5216L12.5368 34.5658L12.6069 34.6187L12.677 34.6629L12.7477 34.7159L12.8178 34.7689L12.8884 34.8307L12.9586 34.8837L12.9056 34.9544L12.8443 35.0162L12.7913 35.0868L12.73 35.1574L12.677 35.2282L12.6245 35.2899L12.5627 35.3606L12.5103 35.4312L12.4573 35.4932L12.3959 35.5638L12.343 35.6344L12.2816 35.705L12.2286 35.7669L12.1762 35.8375L12.1145 35.9082L12.0619 35.9788L12.0001 36.0406L11.9476 36.1113L11.877 36.0583L11.8068 35.9965L11.7362 35.9523L11.6661 35.8993L11.5959 35.8552L11.5253 35.8109L11.4551 35.7669L11.3762 35.7227L11.3055 35.6874L11.2354 35.652L11.1648 35.6255L11.0858 35.599L11.0069 35.5726L10.9274 35.5549L10.8396 35.5372L10.7518 35.5196L10.664 35.5108L10.5673 35.5019L10.4702 35.4932H10.3736H10.2858L10.198 35.5019L10.1185 35.5108L10.0308 35.5284L9.95178 35.5462L9.87228 35.5726L9.79338 35.599L9.71438 35.6344L9.63538 35.6697L9.56475 35.7138L9.49471 35.758L9.42398 35.8023L9.36271 35.8552L9.30085 35.9082L9.23958 35.9612L9.18659 36.0229L9.12531 36.0848L9.07232 36.1554L9.02858 36.2173L8.98445 36.2879L8.94091 36.3674L8.89668 36.438L8.86142 36.5175L8.83492 36.597L8.80005 36.6765L8.77355 36.7648L8.75592 36.8526L8.73829 36.932L8.72056 37.0293L8.71179 37.1175L8.70351 37.2058V37.303V37.3206V37.409L8.71179 37.4973L8.72056 37.5767L8.72942 37.6651L8.74705 37.7445L8.76478 37.8241L8.78242 37.9035L8.80891 37.983L8.83492 38.0536L8.87028 38.1419L8.90555 38.2215L8.94919 38.301L8.99332 38.3716L9.03745 38.4422L9.08995 38.5129L9.14295 38.5747L9.20422 38.6366L9.25731 38.6983L9.31848 38.7513L9.38921 38.8043L9.45935 38.8573L9.52939 38.9015L9.60001 38.9456L9.67911 38.9809L9.75802 39.0163L9.83741 39.0516L9.92528 39.0781L10.013 39.1046L10.1014 39.1223L10.1892 39.1399L10.2769 39.1487L10.3736 39.1576H10.4702H10.5756L10.6728 39.1487L10.7695 39.1399L10.8572 39.1311L10.945 39.1133L11.0334 39.0957L11.1211 39.0693L11.2 39.0516L11.2791 39.0163L11.3498 38.9809L11.4287 38.9456L11.4904 38.9103L11.5607 38.8661V38.7778V38.6896V38.6012V38.5129V38.4157V38.3275V38.2391V38.1508V38.0625H11.4728H11.3934H11.3055H11.2178H11.13H11.0505H10.9626H10.8749H10.7871H10.7077H10.6198H10.5321H10.4442H10.3648H10.2769V37.9742V37.8947V37.8064V37.7181V37.6297V37.5502V37.462V37.3736V37.2854V37.2058V37.1175V37.0293V36.9409V36.8614V36.7736H10.3648H10.4531H10.5409H10.6286H10.7165H10.8042H10.8926H10.9804H11.0681H11.156H11.2443H11.332H11.4198H11.5076H11.5959H11.6838H11.7716H11.8593H11.9476H12.0355H12.1232H12.211H12.2993H12.3871H12.4749H12.5627H12.651H12.7388H12.8267H12.9144H13.0027H13.0905H13.1783V36.8614V36.9497V37.038V37.1175V37.2058V37.2941V37.3824V37.4708V37.5591V37.6385V37.7269V37.8152V37.9035V37.9918V38.0801V38.1685V38.2479V38.3362V38.4246V38.5129V38.6012V38.6896V38.7778V38.8573V38.9456V39.0339V39.1223V39.2106V39.2988V39.3784V39.4667V39.5549V39.6433L13.1171 39.6962ZM14.1002 19.5443H10.2897V25.9569H14.3122V28.9045H7.05393V7.63206H14.2519V10.5795H10.2897V16.5969H14.1002V19.5443ZM37.5828 20.1829V24.9845C37.5828 25.8355 37.1895 26.2303 36.3734 26.2303H35.7682C34.9215 26.2303 34.5282 25.8355 34.5282 24.9845V11.552C34.5282 10.7012 34.9215 10.3063 35.7682 10.3063H36.3126C37.1292 10.3063 37.5226 10.7012 37.5226 11.552V15.7158H40.6977V11.3697C40.6977 8.72611 39.4275 7.44968 36.7969 7.44968H35.2238C32.5931 7.44968 31.2923 8.75626 31.2923 11.4003V25.1362C31.2923 27.7804 32.5931 29.0868 35.2238 29.0868H36.8269C39.4582 29.0868 40.7584 27.7804 40.7584 25.1362V20.1829H37.5828ZM29.5822 28.9045H26.3459V7.63195H29.5822V28.9045ZM21.6504 17.083C21.6504 17.934 21.2576 18.3293 20.441 18.3293H19.1101V10.4886H20.441C21.2576 10.4886 21.6504 10.8835 21.6504 11.7343V17.083ZM20.9548 7.63196H15.8742V28.9045H19.1101V21.1854H20.9548C23.586 21.1854 24.8863 19.8789 24.8863 17.2353V11.5826C24.8863 8.93854 23.586 7.63196 20.9548 7.63196ZM33.2122 48.139H14.6878L23.757 51.2571L33.2122 48.139Z" fill="#F2F3FF"/>
</svg>
