<svg width="51" height="50" viewBox="0 0 51 50" fill="none" xmlns="http://www.w3.org/2000/svg">
<path fill-rule="evenodd" clip-rule="evenodd" d="M0 25.1256C0 37.5628 9.04523 47.8643 20.9799 50L21.1284 49.8785C21.1208 49.8771 21.1131 49.8758 21.1055 49.8744V32.1608H14.8241V25.1256H21.1055V19.598C21.1055 13.3166 25.1256 9.799 30.9045 9.799C32.6633 9.799 34.6734 10.0503 36.4322 10.3015V16.7085H33.1658C30.1508 16.7085 29.397 18.2161 29.397 20.2261V25.1256H36.0553L34.9246 32.1608H29.397V49.8744C29.3205 49.8883 29.2439 49.9018 29.1674 49.915L29.2714 50C41.206 47.8643 50.2513 37.5628 50.2513 25.1256C50.2513 11.3065 38.9447 0 25.1256 0C11.3065 0 0 11.3065 0 25.1256Z" fill="white"/>
</svg>
