<svg width="56" height="56" viewBox="0 0 56 56" fill="none" xmlns="http://www.w3.org/2000/svg">
<path d="M11.8755 0.443062C6.35008 1.43098 1.90447 5.52048 0.503006 10.8966C-0.00243885 12.8379 -0.036901 13.9752 0.0205359 29.0351C0.054998 42.8659 0.0664854 43.1876 0.296233 44.2559C1.57133 50.0111 5.66084 54.1121 11.4735 55.4676C12.2316 55.6399 13.1966 55.6744 19.4112 55.7088C25.8442 55.7548 26.5104 55.7433 26.6827 55.571C26.855 55.3987 26.8665 53.1816 26.8665 28.0472C26.8665 9.41471 26.8321 0.638348 26.7517 0.477524C26.6368 0.270752 26.4415 0.259262 19.7099 0.270752C14.2419 0.282238 12.5992 0.3167 11.8755 0.443062ZM22.2716 28.0128V51.2862L17.5962 51.2288C13.2885 51.1828 12.829 51.1598 11.9674 50.9416C8.26847 49.9881 5.52299 47.1393 4.75334 43.4288C4.50061 42.2686 4.50061 13.688 4.74185 12.5508C5.43109 9.32281 7.67113 6.64624 10.6923 5.44007C12.2086 4.83124 12.9094 4.76231 17.826 4.75083L22.2716 4.73934V28.0128Z" fill="#F2F3FF"/>
<path d="M12.8632 11.7582C12.1395 11.8961 11.0367 12.4475 10.4509 12.9644C9.2447 14.0097 8.64736 15.4916 8.73926 17.2377C8.7852 18.1452 8.84264 18.3864 9.21024 19.1216C9.75014 20.2359 10.5657 21.0515 11.68 21.6029C12.4497 21.982 12.645 22.0279 13.6444 22.0624C14.5519 22.0969 14.8735 22.0624 15.4823 21.8556C17.9751 21.017 19.48 18.5932 19.0549 16.1119C18.561 13.1597 15.758 11.1838 12.8632 11.7582Z" fill="#F2F3FF"/>
<path d="M32.4607 0.339676C32.4148 0.374138 32.3803 12.8265 32.3803 28.0128C32.3803 53.0667 32.3918 55.6054 32.5641 55.6744C32.8743 55.7892 41.7885 55.7433 42.8913 55.6284C47.5551 55.1 51.6676 52.2626 53.9076 48.0467C54.1948 47.5068 54.5739 46.5993 54.7692 46.0365C55.4929 43.8768 55.4699 44.4512 55.4699 27.9438C55.4699 14.7678 55.447 12.8035 55.2861 11.9649C54.1489 5.97998 49.5884 1.46544 43.592 0.431576C42.7879 0.293724 41.5472 0.259262 37.5496 0.259262C34.7927 0.259262 32.4952 0.293724 32.4607 0.339676ZM44.7292 25.3592C46.5213 25.8302 47.9917 27.1972 48.589 28.9432C48.9681 30.0231 48.9566 31.6083 48.5775 32.5962C47.8768 34.4112 46.4983 35.6863 44.7292 36.1573C41.8574 36.904 38.8018 35.1694 37.9632 32.3205C37.7105 31.4475 37.7219 29.9771 38.0091 29.0811C38.8707 26.2667 41.8574 24.6125 44.7292 25.3592Z" fill="#F2F3FF"/>
</svg>
