<svg width="69" height="56" viewBox="0 0 69 56" fill="none" xmlns="http://www.w3.org/2000/svg">
<path fill-rule="evenodd" clip-rule="evenodd" d="M68.3864 42.8603C67.0385 44.6484 63.7363 45.924 63.7363 45.924L39.1713 55.2024V48.3597L57.2495 41.5863C59.301 40.8134 59.616 39.7208 57.9485 39.1473C56.2841 38.5721 53.2702 38.7369 51.2171 39.5131L39.1713 43.9743V36.873L39.8656 36.6258C39.8656 36.6258 43.3464 35.3304 48.2409 34.7602C53.1355 34.1933 59.1286 34.8377 63.8335 36.7131C69.1355 38.4749 69.7326 41.0722 68.3864 42.8603ZM41.5096 31.2087V13.7099C41.5096 11.6549 41.1491 9.76292 39.3155 9.22731C37.9112 8.75433 37.0398 10.1255 37.0398 12.1789V56L25.8011 52.2491V0C30.5796 0.932785 37.5413 3.13785 41.2839 4.46451C50.8018 7.90065 54.0288 12.1773 54.0288 21.8133C54.0288 31.2054 48.5152 34.7652 41.5096 31.2087ZM5.17918 47.6445C-0.263875 46.0327 -1.16975 42.674 1.31121 40.7393C3.6041 38.9528 7.50341 37.608 7.50341 37.608L23.6179 31.5828V38.4518L12.0218 42.8158C9.9734 43.5887 9.65838 44.683 11.3228 45.2565C12.9888 45.83 16.0042 45.6669 18.0557 44.8923L23.6179 42.7696V48.9151C23.2652 48.981 22.8719 49.047 22.5083 49.1112C16.9445 50.0671 11.0188 49.6683 5.17918 47.6445Z" fill="#F2F3FF"/>
</svg>
