<svg width="50" height="50" viewBox="0 0 50 50" fill="none" xmlns="http://www.w3.org/2000/svg">
<path fill-rule="evenodd" clip-rule="evenodd" d="M50 25C50 38.8071 38.8071 50 25 50C11.1929 50 0 38.8071 0 25C0 11.1929 11.1929 0 25 0C38.8071 0 50 11.1929 50 25ZM37.8884 21.4828C39.9078 21.4145 41.5984 22.9867 41.6728 25C41.6978 26.4045 40.9084 27.6972 39.6528 28.325C39.6778 28.6917 39.6778 29.0584 39.6528 29.425C39.6528 35.03 33.1278 39.5789 25.0806 39.5789C17.0334 39.5789 10.5084 35.0239 10.5084 29.425C10.4834 29.0584 10.4834 28.6917 10.5084 28.325C10.1417 28.1634 9.8128 27.9334 9.52669 27.6661C8.05391 26.2867 7.98558 23.975 9.36502 22.5084C10.7445 21.0356 13.0561 20.9672 14.5228 22.3467C17.4061 20.3956 20.7928 19.3267 24.2728 19.2706L26.1184 10.5956V10.5834C26.2117 10.1606 26.6284 9.89947 27.0445 9.9928L33.1717 11.2172C33.5628 10.5334 34.2711 10.0734 35.0606 9.9928C36.4339 9.84336 37.6639 10.8378 37.8134 12.2111C37.9628 13.5845 36.9684 14.815 35.595 14.9639C34.2217 15.1134 32.9911 14.1189 32.8422 12.7456L27.4917 11.6206L25.87 19.4195C29.3067 19.4939 32.65 20.5567 35.4961 22.4956C36.1422 21.8806 36.9934 21.5139 37.8884 21.4828ZM19.1772 25C17.7978 25 16.6728 26.125 16.6728 27.5045C16.6728 28.8839 17.7917 29.9961 19.1772 30.0089C20.5567 30.0089 21.6817 28.8839 21.6817 27.5045C21.6817 26.125 20.5567 25 19.1772 25ZM31.1956 34.3772V34.4767C31.4689 34.2095 31.475 33.7622 31.2078 33.4889C30.94 33.2156 30.4928 33.2095 30.2195 33.4767C28.6972 34.5639 26.8578 35.0984 24.9934 34.9989C23.1295 35.0861 21.2961 34.5267 19.7922 33.4267C19.5372 33.2217 19.1828 33.2217 18.9345 33.4267C18.6484 33.6628 18.605 34.0911 18.8411 34.3772C20.6189 35.7134 22.7934 36.3972 25.0184 36.3039C27.2434 36.3967 29.4184 35.7134 31.1956 34.3772ZM30.7295 30.1889H30.8539C32.2334 30.1328 33.3084 28.9711 33.2528 27.5911C33.2528 26.2117 32.1278 25.0867 30.7484 25.0867C29.3689 25.0867 28.2439 26.2117 28.2439 27.5911C28.2439 28.9706 29.3689 30.0956 30.7484 30.0956L30.7295 30.1889Z" fill="white"/>
</svg>
