<svg width="56" height="56" viewBox="0 0 56 56" fill="none" xmlns="http://www.w3.org/2000/svg">
<path fill-rule="evenodd" clip-rule="evenodd" d="M1.14164 36.0918C4.60565 47.4622 15.178 55.7409 27.681 55.7409C43.0017 55.7409 55.4218 43.3208 55.4218 28.0001C55.4218 12.6794 43.0017 0.259277 27.681 0.259277C12.9801 0.259277 0.950123 11.6963 0 26.1571C0.00403754 26.1638 0.00806953 26.1706 0.012096 26.1774C0.0122619 26.1745 0.012349 26.1731 0.012349 26.1731L14.9187 32.3168C15.3262 32.041 15.7615 31.8085 16.2173 31.6233C17.2645 31.1924 18.3672 30.9991 19.4665 31.0494L26.2543 21.1884L26.2517 21.0514H26.243C26.243 15.2311 30.9702 10.4978 36.7802 10.4978C42.6014 10.5099 47.3174 15.2311 47.3174 21.0514C47.3174 26.8718 42.5928 31.6103 36.7802 31.6103L36.5418 31.6059L26.8386 38.5455C26.8666 39.6319 26.6645 40.712 26.2456 41.7149C25.4604 43.5975 23.96 45.0916 22.0741 45.8689C20.1881 46.6461 18.0707 46.6431 16.187 45.8604C13.7926 44.8635 12.1628 42.7898 11.6427 40.4249L1.14164 36.0918ZM16.8606 44.2358C19.8834 45.4954 23.3615 44.0676 24.6219 41.0335H24.615C25.2236 39.5719 25.227 37.9534 24.6237 36.4857C24.0203 35.0181 22.8933 33.8703 21.4196 33.2609C19.9649 32.6566 18.4097 32.674 17.0417 33.1941L20.596 34.6635C21.6665 35.1108 22.5157 35.9647 22.957 37.0377C23.3983 38.1106 23.3957 39.3149 22.9497 40.3859C22.7294 40.916 22.4069 41.3974 22.0005 41.8028C21.5941 42.2081 21.1118 42.5294 20.5812 42.7483C20.0506 42.9672 19.482 43.0794 18.908 43.0785C18.334 43.0776 17.7659 42.9636 17.2359 42.743L13.8056 41.3213C14.4318 42.6347 15.5191 43.6721 16.8606 44.2358ZM31.8267 26.02C33.1425 27.3383 34.9272 28.0813 36.7897 28.0863C38.6526 28.0817 40.4377 27.3389 41.7539 26.0206C43.0701 24.7023 43.81 22.916 43.8116 21.0532C43.8096 19.1906 43.0694 17.4048 41.7533 16.0868C40.4371 14.7689 38.6523 14.0263 36.7897 14.0217C34.9275 14.0268 33.1431 14.7696 31.8273 16.0874C30.5116 17.4053 29.7716 19.1909 29.7696 21.0532C29.7712 22.9157 30.5109 24.7017 31.8267 26.02ZM33.0711 17.309C32.0828 18.2998 31.5282 19.6425 31.5294 21.0419C31.5287 22.4412 32.0827 23.7835 33.0712 24.7739C34.0596 25.7644 35.4009 26.3219 36.8001 26.3239C38.1999 26.3225 39.5418 25.7654 40.5308 24.7749C41.5199 23.7844 42.0751 22.4416 42.0744 21.0419C42.0744 18.1248 39.7086 15.7581 36.8001 15.7581C35.4007 15.7604 34.0594 16.3183 33.0711 17.309Z" fill="#F2F3FF"/>
</svg>
