<svg width="62" height="50" viewBox="0 0 62 50" fill="none" xmlns="http://www.w3.org/2000/svg">
<path d="M61.5251 5.91872C59.2616 6.92281 56.8286 7.60113 54.2756 7.9063C56.8815 6.34417 58.8832 3.87055 59.8255 0.922884C57.3863 2.36965 54.685 3.41987 51.8097 3.98591C49.5074 1.53259 46.2269 0 42.5963 0C35.6255 0 29.9734 5.65139 29.9734 12.6222C29.9734 13.6115 30.0851 14.575 30.3005 15.4988C19.8098 14.9725 10.509 9.94708 4.28328 2.31027C3.19675 4.17448 2.57411 6.34264 2.57411 8.65599C2.57411 13.0353 4.80256 16.8988 8.18952 19.1623C6.12042 19.0968 4.17407 18.5289 2.47229 17.5836C2.47085 17.6362 2.47085 17.6891 2.47085 17.7423C2.47085 23.8579 6.82192 28.9593 12.5964 30.1197C11.5372 30.4082 10.4221 30.5623 9.27092 30.5623C8.45756 30.5623 7.66697 30.483 6.89606 30.3359C8.50248 35.3505 13.1639 38.9999 18.6877 39.1014C14.3677 42.4872 8.92516 44.5052 3.01105 44.5052C1.99219 44.5052 0.987481 44.4452 0 44.3286C5.58618 47.9103 12.2211 50 19.3494 50C42.5668 50 55.2635 30.7663 55.2635 14.0856C55.2635 13.5383 55.2512 12.9941 55.2269 12.4524C57.6928 10.6731 59.8329 8.45017 61.5251 5.91872Z" fill="white"/>
</svg>
