<svg width="92" height="76" viewBox="0 0 92 76" fill="none" xmlns="http://www.w3.org/2000/svg">
<g opacity="0.3">
<path fill-rule="evenodd" clip-rule="evenodd" d="M28.8943 75.003H21.7103V68.4096H28.7813V69.8699H23.6325V70.9926H28.5067V72.3699H23.6354V73.5055H28.8943V75.0058V75.003Z" fill="white"/>
<path fill-rule="evenodd" clip-rule="evenodd" d="M70.228 75.003H63.1569V68.514H70.1179V69.9442H65.052V71.0484H69.849V72.4028H65.052V73.5212H70.228V74.9987V75.003Z" fill="white"/>
<path fill-rule="evenodd" clip-rule="evenodd" d="M38.6356 75.003H35.7294L31.902 70.0715H31.8649V75.003H29.9626V68.4096H32.9161L36.6962 73.3468H36.7334V68.4096H38.6399V75.003H38.6356Z" fill="white"/>
<path fill-rule="evenodd" clip-rule="evenodd" d="M61.671 75.003H58.7647L54.9374 70.0715H54.9002V75.003H52.9894V68.4096H55.9429L59.723 73.3468H59.7602V68.4096H61.671V75.003Z" fill="white"/>
<path fill-rule="evenodd" clip-rule="evenodd" d="M44.2522 75.0902C43.6429 75.0902 43.1185 75.0749 42.6789 75.0444C42.2972 75.025 41.9183 74.9685 41.5476 74.8757C41.2758 74.8079 41.0198 74.6879 40.7939 74.5224C40.5961 74.3682 40.4406 74.1665 40.3419 73.936C40.2231 73.6568 40.1474 73.3612 40.1174 73.0593C40.0772 72.6544 40.0586 72.2476 40.0616 71.8407V71.6476C40.0587 71.2378 40.0783 70.8282 40.1202 70.4205C40.1484 70.1173 40.2227 69.8202 40.3405 69.5395C40.4407 69.3099 40.5965 69.1088 40.7939 68.9545C41.0201 68.79 41.2768 68.6724 41.549 68.6084C41.9189 68.5162 42.2968 68.4602 42.6775 68.441C43.1209 68.4124 43.6453 68.3981 44.2507 68.3981H44.5368C45.044 68.3981 45.4884 68.4091 45.8698 68.431C46.1998 68.4474 46.5281 68.4876 46.8523 68.5512C47.0895 68.5956 47.3185 68.6757 47.5317 68.7886C47.7032 68.8797 47.8504 69.0106 47.9608 69.1705C48.0701 69.3391 48.1437 69.5285 48.1767 69.7268C48.2195 69.9767 48.2396 70.2299 48.2368 70.4834V70.7366H46.3775V70.6565C46.3811 70.5271 46.3572 70.3984 46.3074 70.2789C46.2492 70.1668 46.1521 70.0798 46.0342 70.0343C45.851 69.9634 45.6582 69.92 45.4622 69.9056C45.2162 69.8818 44.892 69.8694 44.4896 69.8684H44.3265C43.9614 69.8684 43.6496 69.8746 43.3912 69.887C43.1741 69.8945 42.9582 69.9218 42.7461 69.9685C42.5991 70 42.4602 70.0619 42.3385 70.1502C42.2344 70.2328 42.156 70.3435 42.1125 70.4691C42.0586 70.6309 42.0269 70.7993 42.0182 70.9697C42.0038 71.1685 41.9967 71.4073 41.9967 71.6848V71.8021C41.9967 72.0753 42.0038 72.3084 42.0182 72.5029C42.0272 72.67 42.059 72.835 42.1125 72.9935C42.1561 73.1183 42.2345 73.228 42.3385 73.3096C42.4602 73.3979 42.5991 73.4597 42.7461 73.4912C42.9582 73.5378 43.1741 73.5651 43.3912 73.5727C43.6496 73.5861 43.9614 73.5923 44.3265 73.5913H44.4896C44.7871 73.5913 45.0431 73.5913 45.2576 73.5756C45.4722 73.5598 45.6538 73.547 45.8011 73.5241C45.9223 73.5071 46.0406 73.4739 46.153 73.4254C46.2332 73.3896 46.3035 73.3346 46.3575 73.2652C46.4068 73.199 46.4396 73.1221 46.4533 73.0407C46.4691 72.9404 46.4768 72.839 46.4762 72.7375V72.5544H43.9461V71.2815H48.3126V72.746C48.3157 73.0252 48.2951 73.3042 48.2511 73.5799C48.2158 73.7984 48.1401 74.0084 48.028 74.1992C47.9201 74.3734 47.7732 74.5203 47.5989 74.6282C47.3849 74.7559 47.1516 74.8482 46.9081 74.9014C46.5788 74.9758 46.244 75.0236 45.907 75.0444C45.5179 75.073 45.066 75.0873 44.5482 75.0873L44.2522 75.0902Z" fill="white"/>
<path fill-rule="evenodd" clip-rule="evenodd" d="M51.5878 75.0188H49.6556V68.474H51.5878V75.0188Z" fill="white"/>
<path fill-rule="evenodd" clip-rule="evenodd" d="M6.8958 64.9556C5.96138 64.9556 5.14233 64.9304 4.43866 64.8798C3.82535 64.844 3.21598 64.7583 2.61654 64.6238C2.17043 64.5275 1.7423 64.3615 1.34792 64.1318C1.02459 63.9371 0.750131 63.6709 0.545558 63.3538C0.334525 63.0135 0.191257 62.6357 0.123639 62.241C0.0354582 61.7435 -0.00572336 61.2388 0.000638662 60.7336V53.2964H3.39029V59.6352C3.39029 60.027 3.40412 60.3636 3.43177 60.6449C3.45119 60.8903 3.50761 61.1314 3.59911 61.36C3.67634 61.5495 3.80214 61.7152 3.96382 61.8406C4.15315 61.9766 4.3675 62.0738 4.59455 62.1266C4.91073 62.2066 5.23417 62.2546 5.55996 62.2696C5.94326 62.2911 6.39808 62.3025 6.92869 62.3025H7.21474C7.74393 62.3025 8.1997 62.2901 8.58205 62.2654C8.90773 62.249 9.2313 62.2035 9.54888 62.1295C9.77655 62.0785 9.99126 61.9811 10.1796 61.8434C10.3392 61.7164 10.4641 61.5511 10.5429 61.3629C10.6356 61.1346 10.6925 60.8934 10.7117 60.6478C10.7384 60.3617 10.7517 60.028 10.7517 59.6466V53.2949H14.1428V60.7321C14.1477 61.2356 14.1095 61.7385 14.0284 62.2353C13.9656 62.6308 13.8262 63.0103 13.6179 63.3523C13.4166 63.6692 13.145 63.9354 12.8241 64.1304C12.4309 64.3603 12.0037 64.5264 11.5584 64.6224C10.9566 64.7573 10.3448 64.8429 9.72909 64.8784C9.01874 64.928 8.19159 64.9532 7.24764 64.9542L6.8958 64.9556Z" fill="white"/>
<path fill-rule="evenodd" clip-rule="evenodd" d="M31.573 64.814H26.5043L19.8308 56.1897H19.765V64.814H16.4412V53.2792H21.59L28.182 61.9121H28.2463V53.2792H31.5702V64.8083L31.573 64.814Z" fill="white"/>
<path fill-rule="evenodd" clip-rule="evenodd" d="M41.5662 59.1031C42.1512 59.1031 42.616 59.0859 42.9635 59.0502C43.24 59.034 43.5095 58.9574 43.753 58.8256C43.9271 58.7206 44.0533 58.5517 44.1049 58.3551C44.1664 58.0932 44.1943 57.8245 44.1878 57.5556V57.3568C44.1939 57.0912 44.1661 56.8258 44.1049 56.5673C44.0799 56.47 44.0354 56.3788 43.9742 56.2991C43.913 56.2195 43.8363 56.1531 43.7487 56.1039C43.5021 55.9772 43.2317 55.9037 42.955 55.8879C42.6074 55.8522 42.1454 55.835 41.5662 55.835H37.3413V59.1031H41.5662ZM47.6018 64.814H44.2522V63.8786C44.2546 63.5883 44.2413 63.298 44.2121 63.0091C44.1924 62.7948 44.1338 62.5859 44.0391 62.3926C43.9543 62.2277 43.8275 62.0881 43.6715 61.9879C43.4788 61.8718 43.2665 61.7918 43.0451 61.7519C42.7291 61.6894 42.4087 61.6521 42.0868 61.6403C41.7054 61.6203 41.2535 61.6103 40.7309 61.6103H37.3413V64.814H33.9831V53.2792H42.9264C43.7024 53.2664 44.478 53.3248 45.2433 53.4537C45.7594 53.5326 46.2495 53.7326 46.6736 54.0372C47.0239 54.3127 47.2778 54.6923 47.3987 55.1213C47.5439 55.665 47.6113 56.2264 47.5989 56.789V57.1937C47.6037 57.5925 47.5682 57.9906 47.4931 58.3823C47.4329 58.6931 47.316 58.9903 47.1484 59.259C46.9905 59.5038 46.7811 59.7113 46.5348 59.8668C46.2495 60.0404 45.9365 60.1638 45.6095 60.2315V60.2973C45.9487 60.3471 46.2818 60.432 46.6035 60.5505C46.8469 60.6396 47.0591 60.7976 47.2142 61.0053C47.3755 61.2417 47.4793 61.5126 47.5174 61.7962C47.5779 62.2096 47.6052 62.6271 47.5989 63.0448V64.8083L47.6018 64.814Z" fill="white"/>
<path fill-rule="evenodd" clip-rule="evenodd" d="M62.3317 64.814H49.8029V53.2792H62.1343V55.8293H53.1596V57.7901H61.6595V60.1986H53.1596V62.1852H62.3317V64.8083V64.814Z" fill="white"/>
<path fill-rule="evenodd" clip-rule="evenodd" d="M73.6591 60.346L71.3092 55.7192H71.2263L68.8935 60.346H73.6591ZM79.5917 64.8226H75.936L74.8791 62.7531H67.6893L66.6495 64.8226H63.021L69.2125 53.2949H73.373L79.5917 64.8226Z" fill="white"/>
<path fill-rule="evenodd" clip-rule="evenodd" d="M91.9389 64.8226H80.8346V53.2949H84.2243V62.1466H91.9389V64.8283V64.8226Z" fill="white"/>
<path fill-rule="evenodd" clip-rule="evenodd" d="M59.8289 26.6768C59.427 28.6162 57.6378 33.5905 51.9354 36.2851L49.647 33.7107L45.7854 37.5952C43.5867 37.5656 41.4245 37.028 39.4679 36.0244C37.5114 35.0208 35.8134 33.5784 34.5066 31.8099C34.9174 31.9377 35.3417 32.0173 35.7709 32.0473C36.4031 32.0587 37.0881 31.827 37.0881 30.7601V20.2836C37.0976 20.014 37.0437 19.746 36.9307 19.501C36.8178 19.256 36.649 19.041 36.4378 18.8731C36.2267 18.7052 35.9791 18.5892 35.715 18.5343C35.4509 18.4795 35.1776 18.4874 34.9171 18.5573C33.1293 18.9664 31.699 23.4301 31.699 23.4301C31.6791 21.3688 32.1085 19.3279 32.9571 17.4493C33.8058 15.5707 35.0534 13.8994 36.6133 12.5518C39.2764 10.2949 41.878 9.51396 43.8546 9.20789C41.9023 10.3206 40.8039 12.137 40.8039 13.6616C40.8039 16.1059 42.2799 15.817 42.7175 15.4566V29.6045C42.7915 29.7822 42.8876 29.9499 43.0036 30.1036C43.1991 30.374 43.4566 30.5935 43.7545 30.7438C44.0524 30.8942 44.3819 30.9708 44.7156 30.9675C46.1945 30.9675 48.1124 29.2798 48.1124 29.2798V17.8236C48.1124 16.658 47.2342 15.2492 46.3546 14.7686C46.3546 14.7686 47.9822 14.4826 49.2409 15.4423C49.4769 15.1532 49.728 14.8768 49.9932 14.6142C52.9194 11.7394 55.6812 10.9242 57.981 10.5151C57.981 10.5151 53.7947 13.8047 53.7947 18.2098C53.7947 21.4893 53.8791 29.4858 53.8791 29.4858C55.4366 30.9818 57.7436 28.8221 59.8289 26.6768Z" fill="white"/>
<path fill-rule="evenodd" clip-rule="evenodd" d="M45.9697 6.12106e-05C41.3569 0.000344093 36.8478 1.36848 33.0125 3.93146C29.1772 6.49444 26.1881 10.1372 24.4231 14.399C22.6581 18.6608 22.1966 23.3502 23.0967 27.8744C23.9969 32.3985 26.2185 36.5541 29.4804 39.8156C32.7424 43.0772 36.8983 45.2982 41.4225 46.1979C45.9467 47.0975 50.6362 46.6353 54.8977 44.8698C59.1593 43.1043 62.8017 40.1148 65.3642 36.2792C67.9267 32.4436 69.2943 27.9343 69.294 23.3215C69.294 20.2586 68.6907 17.2258 67.5185 14.3961C66.3463 11.5664 64.6282 8.99536 62.4623 6.82973C60.2964 4.6641 57.7251 2.94632 54.8953 1.77448C52.0655 0.602634 49.0326 -0.000314461 45.9697 6.12106e-05ZM45.9697 45.7118C41.5413 45.7121 37.2122 44.3991 33.5299 41.939C29.8477 39.4789 26.9776 35.9821 25.2827 31.8909C23.5879 27.7996 23.1443 23.2976 24.008 18.9542C24.8718 14.6108 27.0042 10.6211 30.1354 7.48962C33.2667 4.35814 37.2563 2.22552 41.5996 1.36147C45.943 0.497421 50.445 0.940741 54.5364 2.63537C58.6278 4.33 62.1247 7.19982 64.5851 10.8819C67.0454 14.564 68.3586 18.893 68.3586 23.3215C68.3586 29.2595 65.9998 34.9543 61.8012 39.1533C57.6025 43.3523 51.9078 45.7114 45.9697 45.7118Z" fill="white"/>
</g>
</svg>
