<svg width="132" height="146" viewBox="0 0 132 146" fill="none" xmlns="http://www.w3.org/2000/svg">
<g filter="url(#filter0_d_118_360)">
<path fill-rule="evenodd" clip-rule="evenodd" d="M48.8943 125.003H41.7103V118.41H48.7813V119.87H43.6325V120.993H48.5067V122.37H43.6354V123.506H48.8943V125.006V125.003Z" fill="white"/>
<path fill-rule="evenodd" clip-rule="evenodd" d="M90.228 125.003H83.1569V118.514H90.1179V119.944H85.052V121.048H89.849V122.403H85.052V123.521H90.228V124.999V125.003Z" fill="white"/>
<path fill-rule="evenodd" clip-rule="evenodd" d="M58.6356 125.003H55.7294L51.902 120.072H51.8649V125.003H49.9626V118.41H52.9161L56.6962 123.347H56.7334V118.41H58.6399V125.003H58.6356Z" fill="white"/>
<path fill-rule="evenodd" clip-rule="evenodd" d="M81.671 125.003H78.7647L74.9374 120.072H74.9002V125.003H72.9894V118.41H75.9429L79.723 123.347H79.7602V118.41H81.671V125.003Z" fill="white"/>
<path fill-rule="evenodd" clip-rule="evenodd" d="M64.2522 125.09C63.6429 125.09 63.1185 125.075 62.6789 125.044C62.2972 125.025 61.9183 124.968 61.5476 124.876C61.2758 124.808 61.0198 124.688 60.7939 124.522C60.5961 124.368 60.4406 124.166 60.3419 123.936C60.2231 123.657 60.1474 123.361 60.1174 123.059C60.0772 122.654 60.0586 122.248 60.0616 121.841V121.648C60.0587 121.238 60.0783 120.828 60.1202 120.42C60.1484 120.117 60.2227 119.82 60.3405 119.539C60.4407 119.31 60.5965 119.109 60.7939 118.954C61.0201 118.79 61.2768 118.672 61.549 118.608C61.9189 118.516 62.2968 118.46 62.6775 118.441C63.1209 118.412 63.6453 118.398 64.2507 118.398H64.5368C65.044 118.398 65.4884 118.409 65.8698 118.431C66.1998 118.447 66.5281 118.488 66.8523 118.551C67.0895 118.596 67.3185 118.676 67.5317 118.789C67.7032 118.88 67.8504 119.011 67.9608 119.17C68.0701 119.339 68.1437 119.529 68.1767 119.727C68.2195 119.977 68.2396 120.23 68.2368 120.483V120.737H66.3775V120.656C66.3811 120.527 66.3572 120.398 66.3074 120.279C66.2492 120.167 66.1521 120.08 66.0342 120.034C65.851 119.963 65.6582 119.92 65.4622 119.906C65.2162 119.882 64.892 119.869 64.4896 119.868H64.3265C63.9614 119.868 63.6496 119.875 63.3912 119.887C63.1741 119.895 62.9582 119.922 62.7461 119.969C62.5991 120 62.4602 120.062 62.3385 120.15C62.2344 120.233 62.156 120.343 62.1125 120.469C62.0586 120.631 62.0269 120.799 62.0182 120.97C62.0038 121.168 61.9967 121.407 61.9967 121.685V121.802C61.9967 122.075 62.0038 122.308 62.0182 122.503C62.0272 122.67 62.059 122.835 62.1125 122.993C62.1561 123.118 62.2345 123.228 62.3385 123.31C62.4602 123.398 62.5991 123.46 62.7461 123.491C62.9582 123.538 63.1741 123.565 63.3912 123.573C63.6496 123.586 63.9614 123.592 64.3265 123.591H64.4896C64.7871 123.591 65.0431 123.591 65.2576 123.576C65.4722 123.56 65.6538 123.547 65.8011 123.524C65.9223 123.507 66.0406 123.474 66.153 123.425C66.2332 123.39 66.3035 123.335 66.3575 123.265C66.4068 123.199 66.4396 123.122 66.4533 123.041C66.4691 122.94 66.4768 122.839 66.4762 122.737V122.554H63.9461V121.281H68.3126V122.746C68.3157 123.025 68.2951 123.304 68.2511 123.58C68.2158 123.798 68.1401 124.008 68.028 124.199C67.9201 124.373 67.7732 124.52 67.5989 124.628C67.3849 124.756 67.1516 124.848 66.9081 124.901C66.5788 124.976 66.244 125.024 65.907 125.044C65.5179 125.073 65.066 125.087 64.5482 125.087L64.2522 125.09Z" fill="white"/>
<path fill-rule="evenodd" clip-rule="evenodd" d="M71.5878 125.019H69.6556V118.474H71.5878V125.019Z" fill="white"/>
<path fill-rule="evenodd" clip-rule="evenodd" d="M26.8958 114.956C25.9614 114.956 25.1423 114.93 24.4387 114.88C23.8254 114.844 23.216 114.758 22.6165 114.624C22.1704 114.528 21.7423 114.361 21.3479 114.132C21.0246 113.937 20.7501 113.671 20.5456 113.354C20.3345 113.014 20.1913 112.636 20.1236 112.241C20.0355 111.744 19.9943 111.239 20.0006 110.734V103.296H23.3903V109.635C23.3903 110.027 23.4041 110.364 23.4318 110.645C23.4512 110.89 23.5076 111.131 23.5991 111.36C23.6763 111.549 23.8021 111.715 23.9638 111.841C24.1531 111.977 24.3675 112.074 24.5946 112.127C24.9107 112.207 25.2342 112.255 25.56 112.27C25.9433 112.291 26.3981 112.303 26.9287 112.303H27.2147C27.7439 112.303 28.1997 112.29 28.582 112.265C28.9077 112.249 29.2313 112.204 29.5489 112.129C29.7766 112.078 29.9913 111.981 30.1796 111.843C30.3392 111.716 30.4641 111.551 30.5429 111.363C30.6356 111.135 30.6925 110.893 30.7117 110.648C30.7384 110.362 30.7517 110.028 30.7517 109.647V103.295H34.1428V110.732C34.1477 111.236 34.1095 111.738 34.0284 112.235C33.9656 112.631 33.8262 113.01 33.6179 113.352C33.4166 113.669 33.145 113.935 32.8241 114.13C32.4309 114.36 32.0037 114.526 31.5584 114.622C30.9566 114.757 30.3448 114.843 29.7291 114.878C29.0187 114.928 28.1916 114.953 27.2476 114.954L26.8958 114.956Z" fill="white"/>
<path fill-rule="evenodd" clip-rule="evenodd" d="M51.573 114.814H46.5043L39.8308 106.19H39.765V114.814H36.4412V103.279H41.59L48.182 111.912H48.2463V103.279H51.5702V114.808L51.573 114.814Z" fill="white"/>
<path fill-rule="evenodd" clip-rule="evenodd" d="M61.5662 109.103C62.1512 109.103 62.616 109.086 62.9635 109.05C63.24 109.034 63.5095 108.957 63.753 108.826C63.9271 108.721 64.0533 108.552 64.1049 108.355C64.1664 108.093 64.1943 107.825 64.1878 107.556V107.357C64.1939 107.091 64.1661 106.826 64.1049 106.567C64.0799 106.47 64.0354 106.379 63.9742 106.299C63.913 106.22 63.8363 106.153 63.7487 106.104C63.5021 105.977 63.2317 105.904 62.955 105.888C62.6074 105.852 62.1454 105.835 61.5662 105.835H57.3413V109.103H61.5662ZM67.6018 114.814H64.2522V113.879C64.2546 113.588 64.2413 113.298 64.2121 113.009C64.1924 112.795 64.1338 112.586 64.0391 112.393C63.9543 112.228 63.8275 112.088 63.6715 111.988C63.4788 111.872 63.2665 111.792 63.0451 111.752C62.7291 111.689 62.4087 111.652 62.0868 111.64C61.7054 111.62 61.2535 111.61 60.7309 111.61H57.3413V114.814H53.9831V103.279H62.9264C63.7024 103.266 64.478 103.325 65.2433 103.454C65.7594 103.533 66.2495 103.733 66.6736 104.037C67.0239 104.313 67.2778 104.692 67.3987 105.121C67.5439 105.665 67.6113 106.226 67.5989 106.789V107.194C67.6037 107.592 67.5682 107.991 67.4931 108.382C67.4329 108.693 67.316 108.99 67.1484 109.259C66.9905 109.504 66.7811 109.711 66.5348 109.867C66.2495 110.04 65.9365 110.164 65.6095 110.232V110.297C65.9487 110.347 66.2818 110.432 66.6035 110.55C66.8469 110.64 67.0591 110.798 67.2142 111.005C67.3755 111.242 67.4793 111.513 67.5174 111.796C67.5779 112.21 67.6052 112.627 67.5989 113.045V114.808L67.6018 114.814Z" fill="white"/>
<path fill-rule="evenodd" clip-rule="evenodd" d="M82.3317 114.814H69.8029V103.279H82.1343V105.829H73.1596V107.79H81.6595V110.199H73.1596V112.185H82.3317V114.808V114.814Z" fill="white"/>
<path fill-rule="evenodd" clip-rule="evenodd" d="M93.6591 110.346L91.3092 105.719H91.2263L88.8935 110.346H93.6591ZM99.5917 114.823H95.936L94.8791 112.753H87.6893L86.6495 114.823H83.021L89.2125 103.295H93.373L99.5917 114.823Z" fill="white"/>
<path fill-rule="evenodd" clip-rule="evenodd" d="M111.939 114.823H100.835V103.295H104.224V112.147H111.939V114.828V114.823Z" fill="white"/>
<path fill-rule="evenodd" clip-rule="evenodd" d="M79.8289 76.6768C79.427 78.6162 77.6378 83.5905 71.9354 86.2851L69.647 83.7107L65.7854 87.5952C63.5867 87.5656 61.4245 87.028 59.4679 86.0244C57.5114 85.0208 55.8134 83.5784 54.5066 81.8099C54.9174 81.9377 55.3417 82.0173 55.7709 82.0473C56.4031 82.0587 57.0881 81.827 57.0881 80.7601V70.2836C57.0976 70.014 57.0437 69.746 56.9307 69.501C56.8178 69.256 56.649 69.041 56.4378 68.8731C56.2267 68.7052 55.9791 68.5892 55.715 68.5343C55.4509 68.4795 55.1776 68.4874 54.9171 68.5573C53.1293 68.9664 51.699 73.4301 51.699 73.4301C51.6791 71.3688 52.1085 69.3279 52.9571 67.4493C53.8058 65.5707 55.0534 63.8994 56.6133 62.5518C59.2764 60.2949 61.878 59.514 63.8546 59.2079C61.9023 60.3206 60.8039 62.137 60.8039 63.6616C60.8039 66.1059 62.2799 65.817 62.7175 65.4566V79.6045C62.7915 79.7822 62.8876 79.9499 63.0036 80.1036C63.1991 80.374 63.4566 80.5935 63.7545 80.7438C64.0524 80.8942 64.3819 80.9708 64.7156 80.9675C66.1945 80.9675 68.1124 79.2798 68.1124 79.2798V67.8236C68.1124 66.658 67.2342 65.2492 66.3546 64.7686C66.3546 64.7686 67.9822 64.4826 69.2409 65.4423C69.4769 65.1532 69.728 64.8768 69.9932 64.6142C72.9194 61.7394 75.6812 60.9242 77.981 60.5151C77.981 60.5151 73.7947 63.8047 73.7947 68.2098C73.7947 71.4893 73.8791 79.4858 73.8791 79.4858C75.4366 80.9818 77.7436 78.8221 79.8289 76.6768Z" fill="white"/>
<path fill-rule="evenodd" clip-rule="evenodd" d="M65.9697 50.0001C61.3569 50.0003 56.8478 51.3685 53.0125 53.9315C49.1772 56.4944 46.1881 60.1372 44.4231 64.399C42.6581 68.6608 42.1966 73.3502 43.0967 77.8744C43.9969 82.3985 46.2185 86.5541 49.4804 89.8156C52.7424 93.0772 56.8983 95.2982 61.4225 96.1979C65.9467 97.0975 70.6362 96.6353 74.8977 94.8698C79.1593 93.1043 82.8017 90.1148 85.3642 86.2792C87.9267 82.4436 89.2943 77.9343 89.294 73.3215C89.294 70.2586 88.6907 67.2258 87.5185 64.3961C86.3463 61.5664 84.6282 58.9954 82.4623 56.8297C80.2964 54.6641 77.7251 52.9463 74.8953 51.7745C72.0655 50.6026 69.0326 49.9997 65.9697 50.0001ZM65.9697 95.7118C61.5413 95.7121 57.2122 94.3991 53.5299 91.939C49.8477 89.4789 46.9776 85.9821 45.2827 81.8909C43.5879 77.7996 43.1443 73.2976 44.008 68.9542C44.8718 64.6108 47.0042 60.6211 50.1354 57.4896C53.2667 54.3581 57.2563 52.2255 61.5996 51.3615C65.943 50.4974 70.445 50.9407 74.5364 52.6354C78.6278 54.33 82.1247 57.1998 84.5851 60.8819C87.0454 64.564 88.3586 68.893 88.3586 73.3215C88.3586 79.2595 85.9998 84.9543 81.8012 89.1533C77.6025 93.3523 71.9078 95.7114 65.9697 95.7118Z" fill="white"/>
</g>
<defs>
<filter id="filter0_d_118_360" x="-30" y="0" width="191.939" height="175.09" filterUnits="userSpaceOnUse" color-interpolation-filters="sRGB">
<feFlood flood-opacity="0" result="BackgroundImageFix"/>
<feColorMatrix in="SourceAlpha" type="matrix" values="0 0 0 0 0 0 0 0 0 0 0 0 0 0 0 0 0 0 127 0" result="hardAlpha"/>
<feOffset/>
<feGaussianBlur stdDeviation="25"/>
<feComposite in2="hardAlpha" operator="out"/>
<feColorMatrix type="matrix" values="0 0 0 0 0.643137 0 0 0 0 0.0313726 0 0 0 0 0.0235294 0 0 0 1 0"/>
<feBlend mode="normal" in2="BackgroundImageFix" result="effect1_dropShadow_118_360"/>
<feBlend mode="normal" in="SourceGraphic" in2="effect1_dropShadow_118_360" result="shape"/>
</filter>
</defs>
</svg>
