<svg width="56" height="56" viewBox="0 0 56 56" fill="none" xmlns="http://www.w3.org/2000/svg">
<path d="M24.9338 55.6257C20.6705 55.2191 16.3518 53.685 12.6368 51.2577C9.52564 49.2246 8.8233 48.3929 8.8233 46.7233C8.8233 43.378 12.5013 37.5129 18.7853 30.8346C22.3586 27.0396 27.3304 22.5915 27.8664 22.7085C28.9137 22.9426 37.2739 31.1119 40.4036 34.95C45.3569 41.0369 47.6364 46.0148 46.4782 48.2327C45.5972 49.9208 40.1448 53.2168 36.1403 54.4798C32.8381 55.5271 28.5009 55.9707 24.9338 55.6257ZM4.62779 43.2486C2.04642 39.2811 0.740326 35.369 0.105762 29.7195C-0.103705 27.8528 -0.0297753 26.787 0.580145 22.9549C1.33792 18.1803 4.04868 12.6602 7.31391 9.25947C8.70625 7.81168 8.82946 7.77472 10.5237 8.34767C12.5814 9.04385 14.7746 10.5594 18.1816 13.646L20.1715 15.4449L19.0872 16.7818C14.0415 22.9796 8.72473 31.7649 6.72247 37.1987C5.63201 40.1498 5.19459 43.1193 5.66281 44.3514C5.97701 45.1831 5.68745 44.8751 4.62779 43.2486ZM49.9713 43.9202C50.2239 42.6757 49.9036 40.3839 49.1458 38.0736C47.5132 33.071 42.0362 23.7559 37.009 17.4287L35.4257 15.4388L37.1384 13.8616C39.3747 11.8039 40.9273 10.5717 42.603 9.53055C43.9276 8.705 45.8128 7.97802 46.626 7.97802C47.125 7.97802 48.887 9.80779 50.3102 11.81C52.5157 14.9028 54.136 18.6609 54.9554 22.5668C55.4853 25.0927 55.5284 30.4958 55.0417 33.0094C54.6412 35.0733 53.791 37.7532 52.9655 39.5768C52.3432 40.9383 50.803 43.5813 50.1254 44.4438C49.7803 44.8751 49.7803 44.8751 49.9713 43.9202ZM25.3897 7.02926C23.0671 5.84639 19.4877 4.58342 17.51 4.23842C16.8139 4.12136 15.6372 4.05359 14.8794 4.09056C13.2468 4.17065 13.3207 4.09056 15.939 2.85223C18.1138 1.82338 19.9312 1.21962 22.3956 0.702113C25.1679 0.116836 30.3738 0.110675 33.103 0.689791C36.0479 1.31203 39.5164 2.6058 41.4694 3.80716L42.0485 4.16449L40.7178 4.09672C38.0687 3.96118 34.212 5.03316 30.0658 7.0539C28.8151 7.66382 27.7308 8.15053 27.6507 8.13205C27.5768 8.11972 26.5541 7.6207 25.3897 7.02926Z" fill="#F2F3FF"/>
</svg>
